<svg id="my-svg" width="100%" xmlns="http://www.w3.org/2000/svg" xmlns:xlink="http://www.w3.org/1999/xlink" class="statediagram" style="max-width: 1205.66px; background-color: white;" viewBox="0 0 1205.66015625 741.5" role="graphics-document document" aria-roledescription="stateDiagram"><style>#my-svg{font-family:"trebuchet ms",verdana,arial,sans-serif;font-size:13px;fill:#1A1A1A;}@keyframes edge-animation-frame{from{stroke-dashoffset:0;}}@keyframes dash{to{stroke-dashoffset:0;}}#my-svg .edge-animation-slow{stroke-dasharray:9,5!important;stroke-dashoffset:900;animation:dash 50s linear infinite;stroke-linecap:round;}#my-svg .edge-animation-fast{stroke-dasharray:9,5!important;stroke-dashoffset:900;animation:dash 20s linear infinite;stroke-linecap:round;}#my-svg .error-icon{fill:#FFFDE7;}#my-svg .error-text{fill:#000218;stroke:#000218;}#my-svg .edge-thickness-normal{stroke-width:1px;}#my-svg .edge-thickness-thick{stroke-width:3.5px;}#my-svg .edge-pattern-solid{stroke-dasharray:0;}#my-svg .edge-thickness-invisible{stroke-width:0;fill:none;}#my-svg .edge-pattern-dashed{stroke-dasharray:3;}#my-svg .edge-pattern-dotted{stroke-dasharray:2;}#my-svg .marker{fill:#444444;stroke:#444444;}#my-svg .marker.cross{stroke:#444444;}#my-svg svg{font-family:"trebuchet ms",verdana,arial,sans-serif;font-size:13px;}#my-svg p{margin:0;}#my-svg defs [id$="-barbEnd"]{fill:#444444;stroke:#444444;}#my-svg g.stateGroup text{fill:#333333;stroke:none;font-size:10px;}#my-svg g.stateGroup text{fill:#1A1A1A;stroke:none;font-size:10px;}#my-svg g.stateGroup .state-title{font-weight:bolder;fill:#1A1A1A;}#my-svg g.stateGroup rect{fill:#FAF6E0;stroke:#333333;}#my-svg g.stateGroup line{stroke:#444444;stroke-width:1;}#my-svg .transition{stroke:#444444;stroke-width:1;fill:none;}#my-svg .stateGroup .composit{fill:#f4f4f4;border-bottom:1px;}#my-svg .stateGroup .alt-composit{fill:#e0e0e0;border-bottom:1px;}#my-svg .state-note{stroke:hsl(52.6829268293, 60%, 73.9215686275%);fill:#fff5ad;}#my-svg .state-note text{fill:#333;stroke:none;font-size:10px;}#my-svg .stateLabel .box{stroke:none;stroke-width:0;fill:#FAF6E0;opacity:0.5;}#my-svg .edgeLabel .label rect{fill:#FAF6E0;opacity:0.5;}#my-svg .edgeLabel{background-color:#FFFFFF;text-align:center;}#my-svg .edgeLabel p{background-color:#FFFFFF;}#my-svg .edgeLabel rect{opacity:0.5;background-color:#FFFFFF;fill:#FFFFFF;}#my-svg .edgeLabel .label text{fill:#1A1A1A;}#my-svg .label div .edgeLabel{color:#1A1A1A;}#my-svg .stateLabel text{fill:#1A1A1A;font-size:10px;font-weight:bold;}#my-svg .node circle.state-start{fill:#444444;stroke:#444444;}#my-svg .node .fork-join{fill:#444444;stroke:#444444;}#my-svg .node circle.state-end{fill:#333333;stroke:#f4f4f4;stroke-width:1.5;}#my-svg .end-state-inner{fill:#f4f4f4;stroke-width:1.5;}#my-svg .node rect{fill:#FAF6E0;stroke:#333333;stroke-width:1px;}#my-svg .node polygon{fill:#FAF6E0;stroke:#333333;stroke-width:1px;}#my-svg [id$="-barbEnd"]{fill:#444444;}#my-svg .statediagram-cluster rect{fill:#FAF6E0;stroke:#333333;stroke-width:1px;}#my-svg .cluster-label,#my-svg .nodeLabel{color:#1A1A1A;}#my-svg .statediagram-cluster rect.outer{rx:5px;ry:5px;}#my-svg .statediagram-state .divider{stroke:#333333;}#my-svg .statediagram-state .title-state{rx:5px;ry:5px;}#my-svg .statediagram-cluster.statediagram-cluster .inner{fill:#f4f4f4;}#my-svg .statediagram-cluster.statediagram-cluster-alt .inner{fill:#FFFDE7;}#my-svg .statediagram-cluster .inner{rx:0;ry:0;}#my-svg .statediagram-state rect.basic{rx:5px;ry:5px;}#my-svg .statediagram-state rect.divider{stroke-dasharray:10,10;fill:#FFFDE7;}#my-svg .note-edge{stroke-dasharray:5;}#my-svg .statediagram-note rect{fill:#fff5ad;stroke:hsl(52.6829268293, 60%, 73.9215686275%);stroke-width:1px;rx:0;ry:0;}#my-svg .statediagram-note rect{fill:#fff5ad;stroke:hsl(52.6829268293, 60%, 73.9215686275%);stroke-width:1px;rx:0;ry:0;}#my-svg .statediagram-note text{fill:#333;}#my-svg .statediagram-note .nodeLabel{color:#333;}#my-svg .statediagram .edgeLabel{color:red;}#my-svg [id$="-dependencyStart"],#my-svg [id$="-dependencyEnd"]{fill:#444444;stroke:#444444;stroke-width:1;}#my-svg .statediagramTitleText{text-anchor:middle;font-size:18px;fill:#1A1A1A;}#my-svg [data-look="neo"].statediagram-cluster rect{fill:#FAF6E0;stroke:url(#my-svg-gradient);stroke-width:1;}#my-svg [data-look="neo"].statediagram-cluster rect.outer{rx:5px;ry:5px;filter:drop-shadow( 1px 2px 2px rgba(185,185,185,1));}#my-svg .node .neo-node{stroke:#333333;}#my-svg [data-look="neo"].node rect,#my-svg [data-look="neo"].cluster rect,#my-svg [data-look="neo"].node polygon{stroke:url(#my-svg-gradient);filter:drop-shadow( 1px 2px 2px rgba(185,185,185,1));}#my-svg [data-look="neo"].swimlane.cluster rect{filter:none;}#my-svg [data-look="neo"].node path{stroke:url(#my-svg-gradient);stroke-width:1px;}#my-svg [data-look="neo"].node .outer-path{filter:drop-shadow( 1px 2px 2px rgba(185,185,185,1));}#my-svg [data-look="neo"].node .neo-line path{stroke:#333333;filter:none;}#my-svg [data-look="neo"].node circle{stroke:url(#my-svg-gradient);filter:drop-shadow( 1px 2px 2px rgba(185,185,185,1));}#my-svg [data-look="neo"].node circle .state-start{fill:#000000;}#my-svg [data-look="neo"].icon-shape .icon{fill:url(#my-svg-gradient);filter:drop-shadow( 1px 2px 2px rgba(185,185,185,1));}#my-svg [data-look="neo"].icon-shape .icon-neo path{stroke:url(#my-svg-gradient);filter:drop-shadow( 1px 2px 2px rgba(185,185,185,1));}#my-svg :root{--mermaid-font-family:"trebuchet ms",verdana,arial,sans-serif;}</style><g><defs><marker id="my-svg_stateDiagram-barbEnd" refX="19" refY="7" markerWidth="20" markerHeight="14" markerUnits="userSpaceOnUse" orient="auto"><path d="M 19,7 L9,13 L14,7 L9,1 Z"/></marker></defs><g class="root"><g class="clusters"><g class="note-cluster" id="my-svg-state-Verifying----parent-11"><rect x="905.06640625" y="595" width="292.59375" height="138.5" fill="none"/></g><g class="note-cluster" id="my-svg-state-Reviewing----parent-12"><rect x="252.0703125" y="406.5" width="288.59375" height="119" fill="none"/></g></g><g class="edgePaths"><path d="M452.293,22L452.293,27.792C452.293,33.583,452.293,45.167,452.293,56.75C452.293,68.333,452.293,79.917,452.293,85.708L452.293,91.5" id="my-svg-edge0" class="edge-thickness-normal edge-pattern-solid transition" style="fill:none;;;fill:none" data-edge="true" data-et="edge" data-id="edge0" data-points="W3sieCI6NDUyLjI5Mjk2ODc1LCJ5IjoyMn0seyJ4Ijo0NTIuMjkyOTY4NzUsInkiOjU2Ljc1fSx7IngiOjQ1Mi4yOTI5Njg3NSwieSI6OTEuNX1d" data-look="classic" marker-end="url(#my-svg_stateDiagram-barbEnd)"/><path d="M433.395,111.788L371.393,120.115C309.391,128.442,185.387,145.096,123.385,159.215C61.383,173.333,61.383,184.917,61.383,190.708L61.383,196.5" id="my-svg-edge1" class="edge-thickness-normal edge-pattern-solid transition" style="fill:none;;;fill:none" data-edge="true" data-et="edge" data-id="edge1" data-points="W3sieCI6NDMzLjM5NDUzMTI1LCJ5IjoxMTEuNzg4MDk3MTg5MDUyfSx7IngiOjYxLjM4MjgxMjUsInkiOjE2MS43NX0seyJ4Ijo2MS4zODI4MTI1LCJ5IjoxOTYuNX1d" data-look="classic" marker-end="url(#my-svg_stateDiagram-barbEnd)"/><path d="M89.945,217.845L154.707,225.996C219.469,234.147,348.992,250.448,413.754,264.391C478.516,278.333,478.516,289.917,478.516,295.708L478.516,301.5" id="my-svg-edge2" class="edge-thickness-normal edge-pattern-solid transition" style="fill:none;;;fill:none" data-edge="true" data-et="edge" data-id="edge2" data-points="W3sieCI6ODkuOTQ1MzEyNSwieSI6MjE3Ljg0NDg1MzI1NzkxNzd9LHsieCI6NDc4LjUxNTYyNSwieSI6MjY2Ljc1fSx7IngiOjQ3OC41MTU2MjUsInkiOjMwMS41fV0=" data-look="classic" marker-end="url(#my-svg_stateDiagram-barbEnd)"/><path d="M61.383,232L61.383,237.792C61.383,243.583,61.383,255.167,61.383,269.708C61.383,284.25,61.383,301.75,61.383,319.25C61.383,336.75,61.383,354.25,61.383,368.792C61.383,383.333,61.383,394.917,70.165,407.667C78.948,420.417,96.513,434.333,105.295,441.292L114.077,448.25" id="my-svg-edge3" class="edge-thickness-normal edge-pattern-solid transition" style="fill:none;;;fill:none" data-edge="true" data-et="edge" data-id="edge3" data-points="W3sieCI6NjEuMzgyODEyNSwieSI6MjMyfSx7IngiOjYxLjM4MjgxMjUsInkiOjI2Ni43NX0seyJ4Ijo2MS4zODI4MTI1LCJ5IjozMTkuMjV9LHsieCI6NjEuMzgyODEyNSwieSI6MzcxLjc1fSx7IngiOjYxLjM4MjgxMjUsInkiOjQwNi41fSx7IngiOjExNC4wNzczODY0MjMzMTkzMywieSI6NDQ4LjI1fV0=" data-look="classic" marker-end="url(#my-svg_stateDiagram-barbEnd)"/><path d="M515.672,325.742L559.559,333.41C603.447,341.078,691.221,356.414,735.109,369.874C778.996,383.333,778.996,394.917,778.996,407.667C778.996,420.417,778.996,434.333,778.996,441.292L778.996,448.25" id="my-svg-edge4" class="edge-thickness-normal edge-pattern-solid transition" style="fill:none;;;fill:none" data-edge="true" data-et="edge" data-id="edge4" data-points="W3sieCI6NTE1LjY3MTg3NSwieSI6MzI1Ljc0MTk0NjQ5MTk0NjQ2fSx7IngiOjc3OC45OTYwOTM3NSwieSI6MzcxLjc1fSx7IngiOjc3OC45OTYwOTM3NSwieSI6NDA2LjV9LHsieCI6Nzc4Ljk5NjA5Mzc1LCJ5Ijo0NDguMjV9XQ==" data-look="classic" marker-end="url(#my-svg_stateDiagram-barbEnd)"/><path d="M515.017,337L526.927,342.792C538.837,348.583,562.657,360.167,574.567,371.75C586.477,383.333,586.477,394.917,593.017,407.667C599.557,420.417,612.638,434.333,619.178,441.292L625.719,448.25" id="my-svg-edge5" class="edge-thickness-normal edge-pattern-solid transition" style="fill:none;;;fill:none" data-edge="true" data-et="edge" data-id="edge5" data-points="W3sieCI6NTE1LjAxNjcwMzg2OTA0NzcsInkiOjMzN30seyJ4Ijo1ODYuNDc2NTYyNSwieSI6MzcxLjc1fSx7IngiOjU4Ni40NzY1NjI1LCJ5Ijo0MDYuNX0seyJ4Ijo2MjUuNzE4NjAyMjg0NjYzOSwieSI6NDQ4LjI1fV0=" data-look="classic" marker-end="url(#my-svg_stateDiagram-barbEnd)"/><path d="M441.359,325.129L392.254,332.899C343.148,340.67,244.938,356.21,195.832,369.772C146.727,383.333,146.727,394.917,145.528,407.667C144.33,420.417,141.934,434.333,140.735,441.292L139.537,448.25" id="my-svg-edge6" class="edge-thickness-normal edge-pattern-solid transition" style="fill:none;;;fill:none" data-edge="true" data-et="edge" data-id="edge6" data-points="W3sieCI6NDQxLjM1OTM3NSwieSI6MzI1LjEyOTM0NzI4ODYxMDV9LHsieCI6MTQ2LjcyNjU2MjUsInkiOjM3MS43NX0seyJ4IjoxNDYuNzI2NTYyNSwieSI6NDA2LjV9LHsieCI6MTM5LjUzNzA3NjU0OTM2OTc0LCJ5Ijo0NDguMjV9XQ==" data-look="classic" marker-end="url(#my-svg_stateDiagram-barbEnd)"/><path d="M778.996,483.75L778.996,490.708C778.996,497.667,778.996,511.583,778.996,524.333C778.996,537.083,778.996,548.667,778.996,560.25C778.996,571.833,778.996,583.417,784.405,597.792C789.814,612.167,800.633,629.333,806.042,637.917L811.451,646.5" id="my-svg-edge7" class="edge-thickness-normal edge-pattern-solid transition" style="fill:none;;;fill:none" data-edge="true" data-et="edge" data-id="edge7" data-points="W3sieCI6Nzc4Ljk5NjA5Mzc1LCJ5Ijo0ODMuNzV9LHsieCI6Nzc4Ljk5NjA5Mzc1LCJ5Ijo1MjUuNX0seyJ4Ijo3NzguOTk2MDkzNzUsInkiOjU2MC4yNX0seyJ4Ijo3NzguOTk2MDkzNzUsInkiOjU5NX0seyJ4Ijo4MTEuNDUwODU0NTgwMzI0OSwieSI6NjQ2LjV9XQ==" data-look="classic" marker-end="url(#my-svg_stateDiagram-barbEnd)"/><path d="M833.823,646.5L839.232,637.917C844.641,629.333,855.459,612.167,860.868,597.792C866.277,583.417,866.277,571.833,866.277,560.25C866.277,548.667,866.277,537.083,866.277,521.375C866.277,505.667,866.277,485.833,866.277,466C866.277,446.167,866.277,426.333,866.277,410.625C866.277,394.917,866.277,383.333,866.277,368.792C866.277,354.25,866.277,336.75,866.277,319.25C866.277,301.75,866.277,284.25,866.277,266.75C866.277,249.25,866.277,231.75,866.277,214.25C866.277,196.75,866.277,179.25,800.43,162.149C734.582,145.049,602.887,128.348,537.039,119.997L471.191,111.647" id="my-svg-edge8" class="edge-thickness-normal edge-pattern-solid transition" style="fill:none;;;fill:none" data-edge="true" data-et="edge" data-id="edge8" data-points="W3sieCI6ODMzLjgyMjU4MjkxOTY3NTEsInkiOjY0Ni41fSx7IngiOjg2Ni4yNzczNDM3NSwieSI6NTk1fSx7IngiOjg2Ni4yNzczNDM3NSwieSI6NTYwLjI1fSx7IngiOjg2Ni4yNzczNDM3NSwieSI6NTI1LjV9LHsieCI6ODY2LjI3NzM0Mzc1LCJ5Ijo0NjZ9LHsieCI6ODY2LjI3NzM0Mzc1LCJ5Ijo0MDYuNX0seyJ4Ijo4NjYuMjc3MzQzNzUsInkiOjM3MS43NX0seyJ4Ijo4NjYuMjc3MzQzNzUsInkiOjMxOS4yNX0seyJ4Ijo4NjYuMjc3MzQzNzUsInkiOjI2Ni43NX0seyJ4Ijo4NjYuMjc3MzQzNzUsInkiOjIxNC4yNX0seyJ4Ijo4NjYuMjc3MzQzNzUsInkiOjE2MS43NX0seyJ4Ijo0NzEuMTkxNDA2MjUsInkiOjExMS42NDY2MzE0Mzk4OTQzMn1d" data-look="classic" marker-end="url(#my-svg_stateDiagram-barbEnd)"/><path d="M652.199,448.25L656.04,441.292C659.88,434.333,667.561,420.417,671.402,407.667C675.242,394.917,675.242,383.333,675.242,368.792C675.242,354.25,675.242,336.75,675.242,319.25C675.242,301.75,675.242,284.25,675.242,266.75C675.242,249.25,675.242,231.75,675.242,214.25C675.242,196.75,675.242,179.25,641.234,162.492C607.225,145.733,539.208,129.717,505.2,121.708L471.191,113.7" id="my-svg-edge9" class="edge-thickness-normal edge-pattern-solid transition" style="fill:none;;;fill:none" data-edge="true" data-et="edge" data-id="edge9" data-points="W3sieCI6NjUyLjE5OTEwMzg2MDI5NDEsInkiOjQ0OC4yNX0seyJ4Ijo2NzUuMjQyMTg3NSwieSI6NDA2LjV9LHsieCI6Njc1LjI0MjE4NzUsInkiOjM3MS43NX0seyJ4Ijo2NzUuMjQyMTg3NSwieSI6MzE5LjI1fSx7IngiOjY3NS4yNDIxODc1LCJ5IjoyNjYuNzV9LHsieCI6Njc1LjI0MjE4NzUsInkiOjIxNC4yNX0seyJ4Ijo2NzUuMjQyMTg3NSwieSI6MTYxLjc1fSx7IngiOjQ3MS4xOTE0MDYyNSwieSI6MTEzLjcwMDE5NzEwOTA2NzAyfV0=" data-look="classic" marker-end="url(#my-svg_stateDiagram-barbEnd)"/><path d="M162.246,449.962L173.883,442.718C185.521,435.475,208.796,420.987,220.433,407.952C232.07,394.917,232.07,383.333,232.07,368.792C232.07,354.25,232.07,336.75,232.07,319.25C232.07,301.75,232.07,284.25,232.07,266.75C232.07,249.25,232.07,231.75,232.07,214.25C232.07,196.75,232.07,179.25,265.624,162.501C299.178,145.752,366.286,129.754,399.84,121.754L433.395,113.755" id="my-svg-edge10" class="edge-thickness-normal edge-pattern-solid transition" style="fill:none;;;fill:none" data-edge="true" data-et="edge" data-id="edge10" data-points="W3sieCI6MTYyLjI0NjA5Mzc1LCJ5Ijo0NDkuOTYyMTU5MjkwNTg4OX0seyJ4IjoyMzIuMDcwMzEyNSwieSI6NDA2LjV9LHsieCI6MjMyLjA3MDMxMjUsInkiOjM3MS43NX0seyJ4IjoyMzIuMDcwMzEyNSwieSI6MzE5LjI1fSx7IngiOjIzMi4wNzAzMTI1LCJ5IjoyNjYuNzV9LHsieCI6MjMyLjA3MDMxMjUsInkiOjIxNC4yNX0seyJ4IjoyMzIuMDcwMzEyNSwieSI6MTYxLjc1fSx7IngiOjQzMy4zOTQ1MzEyNSwieSI6MTEzLjc1NTI5NDcxMjM4Mjd9XQ==" data-look="classic" marker-end="url(#my-svg_stateDiagram-barbEnd)"/><path d="M812.598,473.34L852.392,482.034C892.186,490.727,971.775,508.113,1011.569,522.598C1051.363,537.083,1051.363,548.667,1051.363,560.25C1051.363,571.833,1051.363,583.417,1051.363,593.375C1051.363,603.333,1051.363,611.667,1051.363,615.833L1051.363,620" id="my-svg-Verifying-Verifying----note-11" class="edge-thickness-normal edge-pattern-solid transition note-edge" style="fill:none;;;fill:none" data-edge="true" data-et="edge" data-id="Verifying-Verifying----note-11" data-points="W3sieCI6ODEyLjU5NzY1NjI1LCJ5Ijo0NzMuMzQwNDMyNTUwMjY4Mn0seyJ4IjoxMDUxLjM2MzI4MTI1LCJ5Ijo1MjUuNX0seyJ4IjoxMDUxLjM2MzI4MTI1LCJ5Ijo1NjAuMjV9LHsieCI6MTA1MS4zNjMyODEyNSwieSI6NTk1fSx7IngiOjEwNTEuMzYzMjgxMjUsInkiOjYyMH1d" data-look="classic"/><path d="M450.742,337L441.679,342.792C432.617,348.583,414.492,360.167,405.43,371.75C396.367,383.333,396.367,394.917,396.367,404.875C396.367,414.833,396.367,423.167,396.367,427.333L396.367,431.5" id="my-svg-Reviewing-Reviewing----note-12" class="edge-thickness-normal edge-pattern-solid transition note-edge" style="fill:none;;;fill:none" data-edge="true" data-et="edge" data-id="Reviewing-Reviewing----note-12" data-points="W3sieCI6NDUwLjc0MTYyOTQ2NDI4NTcsInkiOjMzN30seyJ4IjozOTYuMzY3MTg3NSwieSI6MzcxLjc1fSx7IngiOjM5Ni4zNjcxODc1LCJ5Ijo0MDYuNX0seyJ4IjozOTYuMzY3MTg3NSwieSI6NDMxLjV9XQ==" data-look="classic"/></g><g class="edgeLabels"><g class="edgeLabel" transform="translate(452.29296875, 56.75)"><g class="label" data-id="edge0" transform="translate(-46.0546875, -9.75)"><foreignObject width="92.109375" height="19.5"><div xmlns="http://www.w3.org/1999/xhtml" class="labelBkg" style="display: table-cell; white-space: nowrap; line-height: 1.5; max-width: 200px; text-align: center;"><span class="edgeLabel"><p>workspace rảnh</p></span></div></foreignObject></g></g><g class="edgeLabel" transform="translate(61.3828125, 161.75)"><g class="label" data-id="edge1" transform="translate(-34.890625, -9.75)"><foreignObject width="69.78125" height="19.5"><div xmlns="http://www.w3.org/1999/xhtml" class="labelBkg" style="display: table-cell; white-space: nowrap; line-height: 1.5; max-width: 200px; text-align: center;"><span class="edgeLabel"><p>runReview()</p></span></div></foreignObject></g></g><g class="edgeLabel" transform="translate(478.515625, 266.75)"><g class="label" data-id="edge2" transform="translate(-64.8125, -9.75)"><foreignObject width="129.625" height="19.5"><div xmlns="http://www.w3.org/1999/xhtml" class="labelBkg" style="display: table-cell; white-space: nowrap; line-height: 1.5; max-width: 200px; text-align: center;"><span class="edgeLabel"><p>document đã sẵn sàng</p></span></div></foreignObject></g></g><g class="edgeLabel" transform="translate(61.3828125, 319.25)"><g class="label" data-id="edge3" transform="translate(-53.3828125, -9.75)"><foreignObject width="106.765625" height="19.5"><div xmlns="http://www.w3.org/1999/xhtml" class="labelBkg" style="display: table-cell; white-space: nowrap; line-height: 1.5; max-width: 200px; text-align: center;"><span class="edgeLabel"><p>lỗi khởi tạo/parse</p></span></div></foreignObject></g></g><g class="edgeLabel" transform="translate(778.99609375, 371.75)"><g class="label" data-id="edge4" transform="translate(-67.28125, -9.75)"><foreignObject width="134.5625" height="19.5"><div xmlns="http://www.w3.org/1999/xhtml" class="labelBkg" style="display: table-cell; white-space: nowrap; line-height: 1.5; max-width: 200px; text-align: center;"><span class="edgeLabel"><p>tất cả worker hoàn tất</p></span></div></foreignObject></g></g><g class="edgeLabel" transform="translate(586.4765625, 371.75)"><g class="label" data-id="edge5" transform="translate(-45.6796875, -9.75)"><foreignObject width="91.359375" height="19.5"><div xmlns="http://www.w3.org/1999/xhtml" class="labelBkg" style="display: table-cell; white-space: nowrap; line-height: 1.5; max-width: 200px; text-align: center;"><span class="edgeLabel"><p>người dùng hủy</p></span></div></foreignObject></g></g><g class="edgeLabel" transform="translate(146.7265625, 371.75)"><g class="label" data-id="edge6" transform="translate(-65.34375, -9.75)"><foreignObject width="130.6875" height="19.5"><div xmlns="http://www.w3.org/1999/xhtml" class="labelBkg" style="display: table-cell; white-space: nowrap; line-height: 1.5; max-width: 200px; text-align: center;"><span class="edgeLabel"><p>401/429 hoặc lỗi fatal</p></span></div></foreignObject></g></g><g class="edgeLabel" transform="translate(778.99609375, 560.25)"><g class="label" data-id="edge7" transform="translate(-53.125, -9.75)"><foreignObject width="106.25" height="19.5"><div xmlns="http://www.w3.org/1999/xhtml" class="labelBkg" style="display: table-cell; white-space: nowrap; line-height: 1.5; max-width: 200px; text-align: center;"><span class="edgeLabel"><p>tổng hợp + persist</p></span></div></foreignObject></g></g><g class="edgeLabel" transform="translate(866.27734375, 319.25)"><g class="label" data-id="edge8" transform="translate(-49.90625, -9.75)"><foreignObject width="99.8125" height="19.5"><div xmlns="http://www.w3.org/1999/xhtml" class="labelBkg" style="display: table-cell; white-space: nowrap; line-height: 1.5; max-width: 200px; text-align: center;"><span class="edgeLabel"><p>chạy/import mới</p></span></div></foreignObject></g></g><g class="edgeLabel" transform="translate(675.2421875, 266.75)"><g class="label" data-id="edge9" transform="translate(-27.0390625, -9.75)"><foreignObject width="54.078125" height="19.5"><div xmlns="http://www.w3.org/1999/xhtml" class="labelBkg" style="display: table-cell; white-space: nowrap; line-height: 1.5; max-width: 200px; text-align: center;"><span class="edgeLabel"><p>chạy mới</p></span></div></foreignObject></g></g><g class="edgeLabel" transform="translate(232.0703125, 266.75)"><g class="label" data-id="edge10" transform="translate(-65.8515625, -9.75)"><foreignObject width="131.703125" height="19.5"><div xmlns="http://www.w3.org/1999/xhtml" class="labelBkg" style="display: table-cell; white-space: nowrap; line-height: 1.5; max-width: 200px; text-align: center;"><span class="edgeLabel"><p>retry hoặc mock mode</p></span></div></foreignObject></g></g><g class="edgeLabel"><g class="label" data-id="Verifying-Verifying----note-11" transform="translate(0, 0)"><foreignObject width="0" height="0"><div xmlns="http://www.w3.org/1999/xhtml" class="labelBkg" style="display: table-cell; white-space: nowrap; line-height: 1.5; max-width: 200px; text-align: center;"><span class="edgeLabel"></span></div></foreignObject></g></g><g class="edgeLabel"><g class="label" data-id="Reviewing-Reviewing----note-12" transform="translate(0, 0)"><foreignObject width="0" height="0"><div xmlns="http://www.w3.org/1999/xhtml" class="labelBkg" style="display: table-cell; white-space: nowrap; line-height: 1.5; max-width: 200px; text-align: center;"><span class="edgeLabel"></span></div></foreignObject></g></g></g><g class="nodes"><g class="node default" id="my-svg-state-root_start-0" data-look="classic" transform="translate(452.29296875, 15)"><circle class="state-start" r="7" width="14" height="14"/></g><g class="node  statediagram-state" id="my-svg-state-Idle-10" data-look="classic" transform="translate(452.29296875, 109.25)"><rect class="basic label-container" style="" rx="5" ry="5" x="-18.8984375" y="-17.75" width="37.796875" height="35.5"/><g class="label" style="" transform="translate(-10.8984375, -9.75)"><rect/><foreignObject width="21.796875" height="19.5"><div xmlns="http://www.w3.org/1999/xhtml" style="display: table-cell; white-space: nowrap; line-height: 1.5; max-width: 200px; text-align: center;"><span class="nodeLabel markdown-node-label"><p>Idle</p></span></div></foreignObject></g></g><g class="node  statediagram-state" id="my-svg-state-Parsing-3" data-look="classic" transform="translate(61.3828125, 214.25)"><rect class="basic label-container" style="" rx="5" ry="5" x="-28.5625" y="-17.75" width="57.125" height="35.5"/><g class="label" style="" transform="translate(-20.5625, -9.75)"><rect/><foreignObject width="41.125" height="19.5"><div xmlns="http://www.w3.org/1999/xhtml" style="display: table-cell; white-space: nowrap; line-height: 1.5; max-width: 200px; text-align: center;"><span class="nodeLabel markdown-node-label"><p>Parsing</p></span></div></foreignObject></g></g><g class="node  statediagram-state" id="my-svg-state-Reviewing-12" data-look="classic" transform="translate(478.515625, 319.25)"><rect class="basic label-container" style="" rx="5" ry="5" x="-37.15625" y="-17.75" width="74.3125" height="35.5"/><g class="label" style="" transform="translate(-29.15625, -9.75)"><rect/><foreignObject width="58.3125" height="19.5"><div xmlns="http://www.w3.org/1999/xhtml" style="display: table-cell; white-space: nowrap; line-height: 1.5; max-width: 200px; text-align: center;"><span class="nodeLabel markdown-node-label"><p>Reviewing</p></span></div></foreignObject></g></g><g class="node  statediagram-state" id="my-svg-state-Failed-10" data-look="classic" transform="translate(136.48046875, 466)"><rect class="basic label-container" style="" rx="5" ry="5" x="-25.765625" y="-17.75" width="51.53125" height="35.5"/><g class="label" style="" transform="translate(-17.765625, -9.75)"><rect/><foreignObject width="35.53125" height="19.5"><div xmlns="http://www.w3.org/1999/xhtml" style="display: table-cell; white-space: nowrap; line-height: 1.5; max-width: 200px; text-align: center;"><span class="nodeLabel markdown-node-label"><p>Failed</p></span></div></foreignObject></g></g><g class="node  statediagram-state" id="my-svg-state-Verifying-11" data-look="classic" transform="translate(778.99609375, 466)"><rect class="basic label-container" style="" rx="5" ry="5" x="-33.6015625" y="-17.75" width="67.203125" height="35.5"/><g class="label" style="" transform="translate(-25.6015625, -9.75)"><rect/><foreignObject width="51.203125" height="19.5"><div xmlns="http://www.w3.org/1999/xhtml" style="display: table-cell; white-space: nowrap; line-height: 1.5; max-width: 200px; text-align: center;"><span class="nodeLabel markdown-node-label"><p>Verifying</p></span></div></foreignObject></g></g><g class="node  statediagram-state" id="my-svg-state-Cancelled-9" data-look="classic" transform="translate(642.40234375, 466)"><rect class="basic label-container" style="" rx="5" ry="5" x="-36.625" y="-17.75" width="73.25" height="35.5"/><g class="label" style="" transform="translate(-28.625, -9.75)"><rect/><foreignObject width="57.25" height="19.5"><div xmlns="http://www.w3.org/1999/xhtml" style="display: table-cell; white-space: nowrap; line-height: 1.5; max-width: 200px; text-align: center;"><span class="nodeLabel markdown-node-label"><p>Cancelled</p></span></div></foreignObject></g></g><g class="node  statediagram-state" id="my-svg-state-Done-8" data-look="classic" transform="translate(822.63671875, 664.25)"><rect class="basic label-container" style="" rx="5" ry="5" x="-22.578125" y="-17.75" width="45.15625" height="35.5"/><g class="label" style="" transform="translate(-14.578125, -9.75)"><rect/><foreignObject width="29.15625" height="19.5"><div xmlns="http://www.w3.org/1999/xhtml" style="display: table-cell; white-space: nowrap; line-height: 1.5; max-width: 200px; text-align: center;"><span class="nodeLabel markdown-node-label"><p>Done</p></span></div></foreignObject></g></g><g class="node statediagram-note" id="my-svg-state-Verifying----note-11" data-look="classic" transform="translate(1051.36328125, 664.25)"><g class="basic label-container outer-path"><path d="M-111.296875 -44.25 L111.296875 -44.25 L111.296875 44.25 L-111.296875 44.25" stroke="none" stroke-width="0" fill="#fff5ad" style=""/><path d="M-111.296875 -44.25 C-34.35901125144868 -44.25, 42.578852497102645 -44.25, 111.296875 -44.25 M-111.296875 -44.25 C-58.57615175530722 -44.25, -5.855428510614445 -44.25, 111.296875 -44.25 M111.296875 -44.25 C111.296875 -24.99506418698158, 111.296875 -5.7401283739631594, 111.296875 44.25 M111.296875 -44.25 C111.296875 -22.63718968114618, 111.296875 -1.0243793622923576, 111.296875 44.25 M111.296875 44.25 C45.78356489674668 44.25, -19.729745206506635 44.25, -111.296875 44.25 M111.296875 44.25 C44.75465102663654 44.25, -21.787572946726925 44.25, -111.296875 44.25 M-111.296875 44.25 C-111.296875 23.171600603108452, -111.296875 2.0932012062169036, -111.296875 -44.25 M-111.296875 44.25 C-111.296875 21.295190270750044, -111.296875 -1.659619458499911, -111.296875 -44.25" stroke="hsl(52.6829268293, 60%, 73.9215686275%)" stroke-width="1.3" fill="none" stroke-dasharray="0 0" style=""/></g><g class="label noteLabel" style="" transform="translate(-96.296875, -29.25)"><rect/><foreignObject width="192.59375" height="58.5"><div xmlns="http://www.w3.org/1999/xhtml" style="display: table-cell; white-space: nowrap; line-height: 1.5; max-width: 200px; text-align: center;"><span class="nodeLabel markdown-node-label"><p>Verifying chỉ là nhãn tiến độ<br />ở client sau khi worker hoàn tất;<br />server không có phase riêng.</p></span></div></foreignObject></g></g><g class="node statediagram-note" id="my-svg-state-Reviewing----note-12" data-look="classic" transform="translate(396.3671875, 466)"><g class="basic label-container outer-path"><path d="M-109.296875 -34.5 L109.296875 -34.5 L109.296875 34.5 L-109.296875 34.5" stroke="none" stroke-width="0" fill="#fff5ad" style=""/><path d="M-109.296875 -34.5 C-33.04094766776794 -34.5, 43.214979664464124 -34.5, 109.296875 -34.5 M-109.296875 -34.5 C-43.755554747790356 -34.5, 21.785765504419288 -34.5, 109.296875 -34.5 M109.296875 -34.5 C109.296875 -18.11459578706834, 109.296875 -1.729191574136678, 109.296875 34.5 M109.296875 -34.5 C109.296875 -8.933749086057421, 109.296875 16.632501827885157, 109.296875 34.5 M109.296875 34.5 C56.185266103364896 34.5, 3.0736572067297914 34.5, -109.296875 34.5 M109.296875 34.5 C50.16574535832773 34.5, -8.965384283344534 34.5, -109.296875 34.5 M-109.296875 34.5 C-109.296875 13.216661804372777, -109.296875 -8.066676391254447, -109.296875 -34.5 M-109.296875 34.5 C-109.296875 15.402542871841618, -109.296875 -3.694914256316764, -109.296875 -34.5" stroke="hsl(52.6829268293, 60%, 73.9215686275%)" stroke-width="1.3" fill="none" stroke-dasharray="0 0" style=""/></g><g class="label noteLabel" style="" transform="translate(-94.296875, -19.5)"><rect/><foreignObject width="188.59375" height="39"><div xmlns="http://www.w3.org/1999/xhtml" style="display: table-cell; white-space: nowrap; line-height: 1.5; max-width: 200px; text-align: center;"><span class="nodeLabel markdown-node-label"><p>Repository kẹp concurrency 1..8<br />(mặc định 4) và tối đa 60 unit.</p></span></div></foreignObject></g></g></g></g></g><defs><filter id="my-svg-drop-shadow" height="130%" width="130%"><feDropShadow dx="4" dy="4" stdDeviation="0" flood-opacity="0.06" flood-color="#000000"/></filter></defs><defs><filter id="my-svg-drop-shadow-small" height="150%" width="150%"><feDropShadow dx="2" dy="2" stdDeviation="0" flood-opacity="0.06" flood-color="#000000"/></filter></defs><linearGradient id="my-svg-gradient" gradientUnits="objectBoundingBox" x1="0%" y1="0%" x2="100%" y2="0%"><stop offset="0%" stop-color="#333333" stop-opacity="1"/><stop offset="100%" stop-color="hsl(0, 0%, 90%)" stop-opacity="1"/></linearGradient></svg>