<svg xmlns="http://www.w3.org/2000/svg" xmlns:xlink="http://www.w3.org/1999/xlink" contentStyleType="text/css" data-diagram-type="DESCRIPTION" height="474px" preserveAspectRatio="none" style="width:736px;height:474px;background:#FFFFFF;" version="1.1" viewBox="0 0 736 474" width="736px" zoomAndPan="magnify"><defs/><g><!--cluster SYS--><g class="cluster" data-entity="SYS" data-source-line="7" data-uid="ent0004" id="cluster_SYS"><rect fill="#FFFFFF" height="325" rx="6" ry="6" style="stroke:#333333;stroke-width:1;" width="534" x="196" y="22.1407"/><text fill="#1A1A1A" font-family="Comic Sans MS" font-size="13" font-weight="bold" lengthAdjust="spacing" textLength="95.9512" x="415.0244" y="38.4674">SRS Review AI</text></g><!--entity Student--><g class="entity" data-entity="Student" data-source-line="4" data-uid="ent0002" id="entity_Student"><ellipse cx="36.8743" cy="192.6407" fill="#FFFFFF" rx="8" ry="8" style="stroke:#333333;stroke-width:0.5;"/><path d="M36.8743,200.6407 L36.8743,227.6407 M23.8743,208.6407 L49.8743,208.6407 M36.8743,227.6407 L23.8743,242.6407 M36.8743,227.6407 L49.8743,242.6407" fill="none" style="stroke:#333333;stroke-width:0.5;"/><text fill="#1A1A1A" font-family="Comic Sans MS" font-size="13" lengthAdjust="spacing" textLength="54.7485" x="9.5" y="258.4674">Sinh vi&#234;n</text></g><!--entity Supervisor--><g class="entity" data-entity="Supervisor" data-source-line="5" data-uid="ent0003" id="entity_Supervisor"><ellipse cx="36.8388" cy="-32.3593" fill="#FFFFFF" rx="8" ry="8" style="stroke:#333333;stroke-width:0.5;"/><path d="M36.8388,-24.3593 L36.8388,2.6407 M23.8388,-16.3593 L49.8388,-16.3593 M36.8388,2.6407 L23.8388,17.6407 M36.8388,2.6407 L49.8388,17.6407" fill="none" style="stroke:#333333;stroke-width:0.5;"/><text fill="#1A1A1A" font-family="Comic Sans MS" font-size="13" lengthAdjust="spacing" textLength="61.6776" x="6" y="33.4674">Gi&#225;m kh&#7843;o</text></g><g class="entity" data-entity="GMN24" data-source-line="32" data-uid="ent0025" id="entity_GMN24"><path d="M105,-62.8593 L105,-10.5107 A6,6 0 0 0 111,-4.5107 L463.9502,-4.5107 A6,6 0 0 0 469.9502,-10.5107 L469.9502,-58.8593 L459.9502,-68.8593 L111,-68.8593 A6,6 0 0 0 105,-62.8593" fill="#FFFDE7" style="stroke:#333333;stroke-width:0.5;"/><path d="M459.9502,-68.8593 L459.9502,-61.8593 A3,3 0 0 0 462.9502,-58.8593 L469.9502,-58.8593 L459.9502,-68.8593" fill="#FFFDE7" style="stroke:#333333;stroke-width:1;"/><text fill="#1A1A1A" font-family="Comic Sans MS" font-size="13" lengthAdjust="spacing" textLength="254.5017" x="111" y="-49.5326">Review tr&#7921;c tuy&#7871;n d&#249;ng FastAPI + Gemini.</text><text fill="#1A1A1A" font-family="Comic Sans MS" font-size="13" lengthAdjust="spacing" textLength="343.9502" x="111" y="-31.4164">Review ngo&#7841;i tuy&#7871;n d&#249;ng MockReviewApi, kh&#244;ng g&#7885;i m&#7841;ng.</text><text fill="#1A1A1A" font-family="Comic Sans MS" font-size="13" lengthAdjust="spacing" textLength="255.7364" x="111" y="-13.3002">Audit s&#417; &#273;&#7891; l&#224; lu&#7891;ng ri&#234;ng, t&#7889;i &#273;a 10 trang.</text></g><g class="entity" data-entity="UC1" data-source-line="8" data-uid="ent0005" id="entity_UC1"><ellipse cx="287.7234" cy="223.2854" fill="#FAF6E0" rx="78.7234" ry="18.1447" style="stroke:#333333;stroke-width:0.5;"/><text fill="#1A1A1A" font-family="Comic Sans MS" font-size="13" font-weight="bold" lengthAdjust="spacing" textLength="105.9208" x="231.763" y="227.6987">Nh&#7853;p PDF/DOCX</text></g><g class="entity" data-entity="UC2" data-source-line="9" data-uid="ent0006" id="entity_UC2"><ellipse cx="639.9578" cy="297.2323" fill="#FAF6E0" rx="70.9578" ry="16.5916" style="stroke:#333333;stroke-width:0.5;"/><text fill="#1A1A1A" font-family="Comic Sans MS" font-size="13" font-weight="bold" lengthAdjust="spacing" textLength="83.7952" x="595.0602" y="301.6456">Ph&#226;n lo&#7841;i unit</text></g><g class="entity" data-entity="UC3" data-source-line="10" data-uid="ent0007" id="entity_UC3"><ellipse cx="640.222" cy="176.9851" fill="#FAF6E0" rx="82.222" ry="18.8444" style="stroke:#333333;stroke-width:0.5;"/><text fill="#1A1A1A" font-family="Comic Sans MS" font-size="13" font-weight="bold" lengthAdjust="spacing" textLength="115.2214" x="579.6113" y="181.3984">Review tr&#7921;c tuy&#7871;n</text></g><g class="entity" data-entity="UC4" data-source-line="11" data-uid="ent0008" id="entity_UC4"><ellipse cx="287.3729" cy="278.2153" fill="#FAF6E0" rx="83.3729" ry="19.0746" style="stroke:#333333;stroke-width:0.5;"/><text fill="#1A1A1A" font-family="Comic Sans MS" font-size="13" font-weight="bold" lengthAdjust="spacing" textLength="118.2148" x="225.2655" y="282.6286">Review ngo&#7841;i tuy&#7871;n</text></g><g class="entity" data-entity="UC5" data-source-line="12" data-uid="ent0009" id="entity_UC5"><ellipse cx="287.4767" cy="121.3711" fill="#FAF6E0" rx="65.4767" ry="16.2304" style="stroke:#333333;stroke-width:0.5;"/><text fill="#1A1A1A" font-family="Comic Sans MS" font-size="13" font-weight="bold" lengthAdjust="spacing" textLength="73.5488" x="247.7023" y="125.7844">Audit s&#417; &#273;&#7891;</text></g><g class="entity" data-entity="UC6" data-source-line="13" data-uid="ent0010" id="entity_UC6"><ellipse cx="287.7208" cy="171.3597" fill="#FAF6E0" rx="63.7208" ry="16.219" style="stroke:#333333;stroke-width:0.5;"/><text fill="#1A1A1A" font-family="Comic Sans MS" font-size="13" font-weight="bold" lengthAdjust="spacing" textLength="71.2156" x="249.1129" y="175.7731">H&#7887;i t&#224;i li&#7879;u</text></g><g class="entity" data-entity="UC7" data-source-line="14" data-uid="ent0011" id="entity_UC7"><ellipse cx="639.7854" cy="69.1978" fill="#FAF6E0" rx="70.7854" ry="16.5571" style="stroke:#333333;stroke-width:0.5;"/><text fill="#1A1A1A" font-family="Comic Sans MS" font-size="13" font-weight="bold" lengthAdjust="spacing" textLength="83.2724" x="595.1492" y="73.6111">Xu&#7845;t b&#225;o c&#225;o</text></g><g class="entity" data-entity="UC8" data-source-line="15" data-uid="ent0012" id="entity_UC8"><ellipse cx="287.7181" cy="69.2843" fill="#FAF6E0" rx="76.2181" ry="17.6436" style="stroke:#333333;stroke-width:0.5;"/><text fill="#1A1A1A" font-family="Comic Sans MS" font-size="13" font-weight="bold" lengthAdjust="spacing" textLength="99.0412" x="235.1974" y="73.6976">Chia s&#7867; li&#234;n k&#7871;t</text></g><g class="link" data-entity-1="Student" data-entity-2="UC1" data-uid="lnk13" id="link_Student_UC1"><polygon fill="#444444" points="208.9271,223.1407,199.9271,219.1407,203.9271,223.1407,199.9271,227.1407,208.9271,223.1407" style="stroke:#444444;stroke-width:1;"/><path d="M64.5939,223.1407 C98.7755,223.1407 153.5948,223.1407 202.9271,223.1407" fill="none" style="stroke:#444444;stroke-width:1;"/></g><g class="link" data-entity-1="Student" data-entity-2="UC2" data-uid="lnk14" id="link_Student_UC2"><polygon fill="#444444" points="614.0116,313.7752,604.2659,315.1974,609.7836,316.4444,608.5366,321.9621,614.0116,313.7752" style="stroke:#444444;stroke-width:1;"/><path d="M42.6062,262.4153 C49.3108,299.708 65.6189,353.7327 105,379.1407 C241.3134,467.0879 311.8983,415.4713 470,379.1407 C524.6672,366.5786 577.0911,337.0837 608.938,316.9782" fill="none" style="stroke:#444444;stroke-width:1;"/></g><g class="link" data-entity-1="Student" data-entity-2="UC3" data-uid="lnk15" id="link_Student_UC3"><polygon fill="#444444" points="623.2957,196.4174,614.4786,200.806,620.1102,200.2713,620.6449,205.9029,623.2957,196.4174" style="stroke:#444444;stroke-width:1;"/><path d="M47.3955,262.3173 C56.7007,291.6167 74.1553,329.6774 105,348.1407 C174.5954,389.7999 395.1547,379.4008 470,348.1407 C508.3227,332.1347 585.3635,242.3087 619.4731,201.0421" fill="none" style="stroke:#444444;stroke-width:1;"/></g><g class="link" data-entity-1="Student" data-entity-2="UC4" data-uid="lnk16" id="link_Student_UC4"><polygon fill="#444444" points="203.8887,269.4753,195.5238,264.2763,198.9361,268.7881,194.4243,272.2004,203.8887,269.4753" style="stroke:#444444;stroke-width:1;"/><path d="M64.5701,235.4893 C76.6793,240.6866 91.3349,246.3871 105,250.1407 C136.8205,258.8812 166.6353,264.3063 197.9456,268.6507" fill="none" style="stroke:#444444;stroke-width:1;"/></g><g class="link" data-entity-1="Student" data-entity-2="UC5" data-uid="lnk17" id="link_Student_UC5"><polygon fill="#444444" points="221.7534,119.1476,212.5986,115.5158,216.7575,119.3503,212.923,123.5092,221.7534,119.1476" style="stroke:#444444;stroke-width:1;"/><path d="M63.0349,184.0165 C74.1517,169.8141 88.4783,155.0767 105,146.1407 C140.5318,126.9227 179.4831,120.8631 215.7584,119.3909" fill="none" style="stroke:#444444;stroke-width:1;"/></g><g class="link" data-entity-1="Student" data-entity-2="UC6" data-uid="lnk18" id="link_Student_UC6"><polygon fill="#444444" points="223.5865,175.9635,214.222,172.9128,218.6131,176.479,215.0469,180.8702,223.5865,175.9635" style="stroke:#444444;stroke-width:1;"/><path d="M64.5421,210.6885 C76.6458,205.4711 91.305,199.7836 105,196.1407 C143.7312,185.8383 182.3365,180.2398 217.6185,176.5822" fill="none" style="stroke:#444444;stroke-width:1;"/></g><g class="link" data-entity-1="Student" data-entity-2="UC7" data-uid="lnk19" id="link_Student_UC7"><polygon fill="#444444" points="575.1313,52.6173,567.1855,46.798,570.2452,51.5559,565.4873,54.6157,575.1313,52.6173" style="stroke:#444444;stroke-width:1;"/><path d="M40.0522,183.9283 C44.643,140.9926 59.2125,74.0155 105,42.1407 C184.3391,-13.091 444.3115,32.3947 540,46.1407 C551.4402,47.7841 557.6439,48.8186 569.268,51.3437" fill="none" style="stroke:#444444;stroke-width:1;"/></g><g class="link" data-entity-1="Supervisor" data-entity-2="UC8" data-uid="lnk20" id="link_Supervisor_UC8"><polygon fill="#444444" points="224.8136,51.516,217.2588,45.1974,220.006,50.1424,215.061,52.8896,224.8136,51.516" style="stroke:#444444;stroke-width:1;"/><path d="M68.471,6.8467 C107.2222,17.9185 169.3002,35.655 219.0445,49.8677" fill="none" style="stroke:#444444;stroke-width:1;"/></g><g class="link" data-entity-1="UC1" data-entity-2="UC2" data-uid="lnk21" id="link_UC1_UC2"><polygon fill="#444444" points="586.1356,280.6253,578.657,274.2167,581.3447,279.1942,576.3672,281.882,586.1356,280.6253" style="stroke:#444444;stroke-width:1;"/><path d="M366.1557,232.5438 C398.4369,237.0084 436.1905,242.9534 470,250.1407 C509.3203,258.4995 547.2745,269.0168 580.3866,278.908" fill="none" style="stroke:#444444;stroke-width:1;stroke-dasharray:7.0,7.0;"/><text fill="#1A1A1A" font-family="Comic Sans MS" font-size="11" lengthAdjust="spacing" textLength="48.4204" x="490" y="249.2633">&#171;include&#187;</text></g><g class="link" data-entity-1="UC5" data-entity-2="UC3" data-uid="lnk22" id="link_UC5_UC3"><polygon fill="#444444" points="557.8936,161.506,549.7742,155.9315,552.9775,160.594,548.315,163.7973,557.8936,161.506" style="stroke:#444444;stroke-width:1;"/><path d="M353.285,129.3522 C387.9624,133.927 431.3707,139.9405 470,146.1407 C498.7165,150.7498 524.1739,155.2503 551.9943,160.4116" fill="none" style="stroke:#444444;stroke-width:1;stroke-dasharray:7.0,7.0;"/><text fill="#1A1A1A" font-family="Comic Sans MS" font-size="11" lengthAdjust="spacing" textLength="48.6567" x="490" y="145.2633">&#171;extend&#187;</text></g><g class="link" data-entity-1="UC8" data-entity-2="UC7" data-uid="lnk23" id="link_UC8_UC7"><polygon fill="#444444" points="568.7065,69.1407,559.7065,65.1407,563.7065,69.1407,559.7065,73.1407,568.7065,69.1407" style="stroke:#444444;stroke-width:1;"/><path d="M363.691,69.1407 C424.4381,69.1407 503.3069,69.1407 562.7065,69.1407" fill="none" style="stroke:#444444;stroke-width:1;stroke-dasharray:7.0,7.0;"/><text fill="#1A1A1A" font-family="Comic Sans MS" font-size="11" lengthAdjust="spacing" textLength="48.6567" x="490" y="64.2633">&#171;extend&#187;</text></g><g class="link" data-entity-1="SYS" data-entity-2="GMN24" data-uid="lnk26" id="link_SYS_GMN24"><path d="M195.1212,341.1492 C194.5174,341.1566 193.9129,341.162 193.3079,341.1653 C190.8877,341.1786 188.4584,341.159 186.0248,341.1031 C147.0885,340.2095 107.0831,330.0436 86.5,297.1407 C70.5896,271.7073 70.5896,52.5741 86.5,27.1407 C94.6574,14.1007 105.5484,3.6169 118.0564,-4.7986" fill="none" style="stroke:#444444;stroke-width:1;stroke-dasharray:7.0,7.0;"/></g><!--SRC=[RP91RzCm68Rl-HNVTcLhMBjk0qsLgbOTEnIgHg1nGcxYfP_gs5LY5wg9CoU49lx02kA2n0692ys1Gn3_m_-4BwsdfUikKVI-Zrz_zkkTQShYX85WSsKqP0dNJ39l1sKeJCJ1VwM4INZc1q7Nx_APpqADC-uFXlt6a_gRdZ1QyxIlHYYu7o6BKvPa-opcKlkPdWjUGvC8J_1B3Lf1Yl5OGuGffnWbFO_YL0gx0SenpB3uBdU1PH1esblgM_SCYqK2ax5TVbLhtqnvEiDCfPvNHZ4P2qufmm26V8RyBRJFr-3h0Auy09Fna6M4FAUG7rCOT7j-zqNdOWMzx1nKaS6u-291ABjS81Y9sa7rAkIsqQdDVuQWpTmk_qW7DXu0PRpEsoGFgsJRH4WD_5l0tskRVtP8iueyi_adoYXk40JQ_8Dnq54LkZ1s-Kt3g5We2EdZcECgqnaZWymkSygXIuS93NLxpXEFIDS0xE-ttFriAlKjfR6b76ufpItbQ4ifvxphruchcMWEgDLMkyDJE3rrRxJLMdbDvpLM7d-dkOoSTUAiuqthlUT9fJcCbDOg0NLPFXTQy62t41M_PGmzbkdsu1mUmHbFK6BjZhzNiLlGL-5a3RIdk4UFkFX5QcppZmW9yJ8k8-vr3wAu0M7eZzYqR2ZU0stpQoIVmS5Z6ewLA-aWK9xXFm00]--></g></svg>