<svg xmlns="http://www.w3.org/2000/svg" xmlns:xlink="http://www.w3.org/1999/xlink" contentStyleType="text/css" data-diagram-type="DESCRIPTION" height="732px" preserveAspectRatio="none" style="width:2318px;height:732px;background:#FFFFFF;" version="1.1" viewBox="0 0 2318 732" width="2318px" zoomAndPan="magnify"><defs/><g><!--cluster App--><g class="cluster" data-entity="App" data-source-line="3" data-uid="ent0002" id="cluster_App"><rect fill="#FFFFFF" height="413" rx="6" ry="6" style="stroke:#333333;stroke-width:1;" width="1239" x="14" y="12"/><text fill="#1A1A1A" font-family="Comic Sans MS" font-size="13" font-weight="bold" lengthAdjust="spacing" textLength="70.7383" x="598.1309" y="28.3267">Flutter app</text></g><!--cluster Proxy--><g class="cluster" data-entity="Proxy" data-source-line="20" data-uid="ent0017" id="cluster_Proxy"><rect fill="#FFFFFF" height="291" rx="6" ry="6" style="stroke:#333333;stroke-width:1;" width="644" x="1407" y="340"/><text fill="#1A1A1A" font-family="Comic Sans MS" font-size="13" font-weight="bold" lengthAdjust="spacing" textLength="91.6348" x="1683.1826" y="356.3267">FastAPI proxy</text></g><!--entity Gemini--><g class="entity" data-entity="Gemini" data-source-line="32" data-uid="ent0027" id="entity_Gemini"><rect fill="#F1F1F1" height="48.1162" rx="6" ry="6" style="stroke:#181818;stroke-width:0.5;" width="107.4121" x="1427.5" y="678"/><rect fill="#F1F1F1" height="10" style="stroke:#181818;stroke-width:0.5;" width="15" x="1514.9121" y="683"/><rect fill="#F1F1F1" height="2" style="stroke:#181818;stroke-width:0.5;" width="4" x="1512.9121" y="685"/><rect fill="#F1F1F1" height="2" style="stroke:#181818;stroke-width:0.5;" width="4" x="1512.9121" y="689"/><text fill="#1A1A1A" font-family="Comic Sans MS" font-size="13" lengthAdjust="spacing" textLength="67.4121" x="1442.5" y="712.3267">Gemini API</text></g><!--entity Prefs--><g class="entity" data-entity="Prefs" data-source-line="33" data-uid="ent0028" id="entity_Prefs"><path d="M1261,379.5 C1261,369.5 1330.1729,369.5 1330.1729,369.5 C1330.1729,369.5 1399.3457,369.5 1399.3457,379.5 L1399.3457,406.6162 C1399.3457,416.6162 1330.1729,416.6162 1330.1729,416.6162 C1330.1729,416.6162 1261,416.6162 1261,406.6162 L1261,379.5" fill="#FFFFFF" style="stroke:#333333;stroke-width:0.5;"/><path d="M1261,379.5 C1261,389.5 1330.1729,389.5 1330.1729,389.5 C1330.1729,389.5 1399.3457,389.5 1399.3457,379.5" fill="none" style="stroke:#333333;stroke-width:0.5;"/><text fill="#1A1A1A" font-family="Comic Sans MS" font-size="13" lengthAdjust="spacing" textLength="118.3457" x="1271" y="407.8267">SharedPreferences</text></g><!--entity Shares--><g class="entity" data-entity="Shares" data-source-line="34" data-uid="ent0029" id="entity_Shares"><path d="M2059.5,585.5 C2059.5,575.5 2114.2319,575.5 2114.2319,575.5 C2114.2319,575.5 2168.9639,575.5 2168.9639,585.5 L2168.9639,612.6162 C2168.9639,622.6162 2114.2319,622.6162 2114.2319,622.6162 C2114.2319,622.6162 2059.5,622.6162 2059.5,612.6162 L2059.5,585.5" fill="#FFFFFF" style="stroke:#333333;stroke-width:0.5;"/><path d="M2059.5,585.5 C2059.5,595.5 2114.2319,595.5 2114.2319,595.5 C2114.2319,595.5 2168.9639,595.5 2168.9639,585.5" fill="none" style="stroke:#333333;stroke-width:0.5;"/><text fill="#1A1A1A" font-family="Comic Sans MS" font-size="13" lengthAdjust="spacing" textLength="89.4639" x="2069.5" y="613.8267">server/.shares</text></g><!--entity Uploads--><g class="entity" data-entity="Uploads" data-source-line="35" data-uid="ent0030" id="entity_Uploads"><path d="M2187,585.5 C2187,575.5 2244.0012,575.5 2244.0012,575.5 C2244.0012,575.5 2301.0024,575.5 2301.0024,585.5 L2301.0024,612.6162 C2301.0024,622.6162 2244.0012,622.6162 2244.0012,622.6162 C2244.0012,622.6162 2187,622.6162 2187,612.6162 L2187,585.5" fill="#FFFFFF" style="stroke:#333333;stroke-width:0.5;"/><path d="M2187,585.5 C2187,595.5 2244.0012,595.5 2244.0012,595.5 C2244.0012,595.5 2301.0024,595.5 2301.0024,585.5" fill="none" style="stroke:#333333;stroke-width:0.5;"/><text fill="#1A1A1A" font-family="Comic Sans MS" font-size="13" lengthAdjust="spacing" textLength="94.0024" x="2197" y="613.8267">server/.uploads</text></g><g class="entity" data-entity="GMN63" data-source-line="71" data-uid="ent0064" id="entity_GMN63"><path d="M1397,151 L1397,185.2324 A6,6 0 0 0 1403,191.2324 L1729.4131,191.2324 A6,6 0 0 0 1735.4131,185.2324 L1735.4131,155 L1725.4131,145 L1403,145 A6,6 0 0 0 1397,151" fill="#FFFDE7" style="stroke:#333333;stroke-width:0.5;"/><path d="M1725.4131,145 L1725.4131,152 A3,3 0 0 0 1728.4131,155 L1735.4131,155 L1725.4131,145" fill="#FFFDE7" style="stroke:#333333;stroke-width:1;"/><text fill="#1A1A1A" font-family="Comic Sans MS" font-size="13" lengthAdjust="spacing" textLength="194.2573" x="1403" y="164.3267">MockReviewApi l&#224; client offline;</text><text fill="#1A1A1A" font-family="Comic Sans MS" font-size="13" lengthAdjust="spacing" textLength="317.4131" x="1403" y="182.4429">server MockProvider ch&#7881; ch&#7841;y n&#7871;u request t&#7899;i proxy.</text></g><!--entity UI--><g class="entity" data-entity="UI" data-source-line="4" data-uid="ent0003" id="entity_UI"><rect fill="#F1F1F1" height="48.1162" rx="6" ry="6" style="stroke:#181818;stroke-width:0.5;" width="127.915" x="549" y="41"/><rect fill="#F1F1F1" height="10" style="stroke:#181818;stroke-width:0.5;" width="15" x="656.915" y="46"/><rect fill="#F1F1F1" height="2" style="stroke:#181818;stroke-width:0.5;" width="4" x="654.915" y="48"/><rect fill="#F1F1F1" height="2" style="stroke:#181818;stroke-width:0.5;" width="4" x="654.915" y="52"/><text fill="#1A1A1A" font-family="Comic Sans MS" font-size="13" lengthAdjust="spacing" textLength="87.915" x="564" y="75.3267">Workspace UI</text></g><!--entity VM--><g class="entity" data-entity="VM" data-source-line="5" data-uid="ent0004" id="entity_VM"><rect fill="#F1F1F1" height="48.1162" rx="6" ry="6" style="stroke:#181818;stroke-width:0.5;" width="172.0884" x="527" y="144"/><rect fill="#F1F1F1" height="10" style="stroke:#181818;stroke-width:0.5;" width="15" x="679.0884" y="149"/><rect fill="#F1F1F1" height="2" style="stroke:#181818;stroke-width:0.5;" width="4" x="677.0884" y="151"/><rect fill="#F1F1F1" height="2" style="stroke:#181818;stroke-width:0.5;" width="4" x="677.0884" y="155"/><text fill="#1A1A1A" font-family="Comic Sans MS" font-size="13" lengthAdjust="spacing" textLength="132.0884" x="542" y="178.3267">WorkspaceViewModel</text></g><!--entity Doc--><g class="entity" data-entity="Doc" data-source-line="6" data-uid="ent0005" id="entity_Doc"><rect fill="#F1F1F1" height="48.1162" rx="6" ry="6" style="stroke:#181818;stroke-width:0.5;" width="164.833" x="22.5" y="247"/><rect fill="#F1F1F1" height="10" style="stroke:#181818;stroke-width:0.5;" width="15" x="167.333" y="252"/><rect fill="#F1F1F1" height="2" style="stroke:#181818;stroke-width:0.5;" width="4" x="165.333" y="254"/><rect fill="#F1F1F1" height="2" style="stroke:#181818;stroke-width:0.5;" width="4" x="165.333" y="258"/><text fill="#1A1A1A" font-family="Comic Sans MS" font-size="13" lengthAdjust="spacing" textLength="124.833" x="37.5" y="281.3267">DocumentRepository</text></g><!--entity Repo--><g class="entity" data-entity="Repo" data-source-line="7" data-uid="ent0006" id="entity_Repo"><rect fill="#F1F1F1" height="48.1162" rx="6" ry="6" style="stroke:#181818;stroke-width:0.5;" width="146.2979" x="206" y="247"/><rect fill="#F1F1F1" height="10" style="stroke:#181818;stroke-width:0.5;" width="15" x="332.2979" y="252"/><rect fill="#F1F1F1" height="2" style="stroke:#181818;stroke-width:0.5;" width="4" x="330.2979" y="254"/><rect fill="#F1F1F1" height="2" style="stroke:#181818;stroke-width:0.5;" width="4" x="330.2979" y="258"/><text fill="#1A1A1A" font-family="Comic Sans MS" font-size="13" lengthAdjust="spacing" textLength="106.2979" x="221" y="281.3267">ReviewRepository</text></g><!--entity Vision--><g class="entity" data-entity="Vision" data-source-line="8" data-uid="ent0007" id="entity_Vision"><rect fill="#F1F1F1" height="48.1162" rx="6" ry="6" style="stroke:#181818;stroke-width:0.5;" width="163.1255" x="370.5" y="247"/><rect fill="#F1F1F1" height="10" style="stroke:#181818;stroke-width:0.5;" width="15" x="513.6255" y="252"/><rect fill="#F1F1F1" height="2" style="stroke:#181818;stroke-width:0.5;" width="4" x="511.6255" y="254"/><rect fill="#F1F1F1" height="2" style="stroke:#181818;stroke-width:0.5;" width="4" x="511.6255" y="258"/><text fill="#1A1A1A" font-family="Comic Sans MS" font-size="13" lengthAdjust="spacing" textLength="123.1255" x="385.5" y="281.3267">VisionReviewService</text></g><!--entity Ask--><g class="entity" data-entity="Ask" data-source-line="9" data-uid="ent0008" id="entity_Ask"><rect fill="#F1F1F1" height="48.1162" rx="6" ry="6" style="stroke:#181818;stroke-width:0.5;" width="122.6655" x="551.5" y="247"/><rect fill="#F1F1F1" height="10" style="stroke:#181818;stroke-width:0.5;" width="15" x="654.1655" y="252"/><rect fill="#F1F1F1" height="2" style="stroke:#181818;stroke-width:0.5;" width="4" x="652.1655" y="254"/><rect fill="#F1F1F1" height="2" style="stroke:#181818;stroke-width:0.5;" width="4" x="652.1655" y="258"/><text fill="#1A1A1A" font-family="Comic Sans MS" font-size="13" lengthAdjust="spacing" textLength="82.6655" x="566.5" y="281.3267">AskDocument</text></g><!--entity Export--><g class="entity" data-entity="Export" data-source-line="10" data-uid="ent0009" id="entity_Export"><rect fill="#F1F1F1" height="48.1162" rx="6" ry="6" style="stroke:#181818;stroke-width:0.5;" width="136.77" x="968.5" y="247"/><rect fill="#F1F1F1" height="10" style="stroke:#181818;stroke-width:0.5;" width="15" x="1085.27" y="252"/><rect fill="#F1F1F1" height="2" style="stroke:#181818;stroke-width:0.5;" width="4" x="1083.27" y="254"/><rect fill="#F1F1F1" height="2" style="stroke:#181818;stroke-width:0.5;" width="4" x="1083.27" y="258"/><text fill="#1A1A1A" font-family="Comic Sans MS" font-size="13" lengthAdjust="spacing" textLength="96.77" x="983.5" y="281.3267">ReportExporter</text></g><!--entity Store--><g class="entity" data-entity="Store" data-source-line="11" data-uid="ent0010" id="entity_Store"><rect fill="#F1F1F1" height="48.1162" rx="6" ry="6" style="stroke:#181818;stroke-width:0.5;" width="121.4214" x="1123.5" y="247"/><rect fill="#F1F1F1" height="10" style="stroke:#181818;stroke-width:0.5;" width="15" x="1224.9214" y="252"/><rect fill="#F1F1F1" height="2" style="stroke:#181818;stroke-width:0.5;" width="4" x="1222.9214" y="254"/><rect fill="#F1F1F1" height="2" style="stroke:#181818;stroke-width:0.5;" width="4" x="1222.9214" y="258"/><text fill="#1A1A1A" font-family="Comic Sans MS" font-size="13" lengthAdjust="spacing" textLength="81.4214" x="1138.5" y="281.3267">SessionStore</text></g><!--entity Selector--><g class="entity" data-entity="Selector" data-source-line="12" data-uid="ent0011" id="entity_Selector"><rect fill="#F1F1F1" height="48.1162" rx="6" ry="6" style="stroke:#181818;stroke-width:0.5;" width="158.022" x="151" y="369"/><rect fill="#F1F1F1" height="10" style="stroke:#181818;stroke-width:0.5;" width="15" x="289.022" y="374"/><rect fill="#F1F1F1" height="2" style="stroke:#181818;stroke-width:0.5;" width="4" x="287.022" y="376"/><rect fill="#F1F1F1" height="2" style="stroke:#181818;stroke-width:0.5;" width="4" x="287.022" y="380"/><text fill="#1A1A1A" font-family="Comic Sans MS" font-size="13" lengthAdjust="spacing" textLength="118.022" x="166" y="403.3267">PageImageSelector</text></g><!--entity Renderer--><g class="entity" data-entity="Renderer" data-source-line="13" data-uid="ent0012" id="entity_Renderer"><rect fill="#F1F1F1" height="48.1162" rx="6" ry="6" style="stroke:#181818;stroke-width:0.5;" width="161.7861" x="349" y="369"/><rect fill="#F1F1F1" height="10" style="stroke:#181818;stroke-width:0.5;" width="15" x="490.7861" y="374"/><rect fill="#F1F1F1" height="2" style="stroke:#181818;stroke-width:0.5;" width="4" x="488.7861" y="376"/><rect fill="#F1F1F1" height="2" style="stroke:#181818;stroke-width:0.5;" width="4" x="488.7861" y="380"/><text fill="#1A1A1A" font-family="Comic Sans MS" font-size="13" lengthAdjust="spacing" textLength="121.7861" x="364" y="403.3267">PageImageRenderer</text></g><!--entity Upload--><g class="entity" data-entity="Upload" data-source-line="14" data-uid="ent0013" id="entity_Upload"><rect fill="#F1F1F1" height="48.1162" rx="6" ry="6" style="stroke:#181818;stroke-width:0.5;" width="127.3628" x="979.5" y="41"/><rect fill="#F1F1F1" height="10" style="stroke:#181818;stroke-width:0.5;" width="15" x="1086.8628" y="46"/><rect fill="#F1F1F1" height="2" style="stroke:#181818;stroke-width:0.5;" width="4" x="1084.8628" y="48"/><rect fill="#F1F1F1" height="2" style="stroke:#181818;stroke-width:0.5;" width="4" x="1084.8628" y="52"/><text fill="#1A1A1A" font-family="Comic Sans MS" font-size="13" lengthAdjust="spacing" textLength="87.3628" x="994.5" y="75.3267">UploadService</text></g><!--entity IApi--><g class="entity" data-entity="IApi" data-source-line="15" data-uid="ent0014" id="entity_IApi"><ellipse cx="613" cy="390" fill="#F1F1F1" rx="8" ry="8" style="stroke:#181818;stroke-width:0.5;"/><text fill="#1A1A1A" font-family="Comic Sans MS" font-size="13" lengthAdjust="spacing" textLength="61.3755" x="582.3123" y="421.3267">ReviewApi</text></g><!--entity Api--><g class="entity" data-entity="Api" data-source-line="16" data-uid="ent0015" id="entity_Api"><rect fill="#F1F1F1" height="48.1162" rx="6" ry="6" style="stroke:#181818;stroke-width:0.5;" width="106.2505" x="693" y="247"/><rect fill="#F1F1F1" height="10" style="stroke:#181818;stroke-width:0.5;" width="15" x="779.2505" y="252"/><rect fill="#F1F1F1" height="2" style="stroke:#181818;stroke-width:0.5;" width="4" x="777.2505" y="254"/><rect fill="#F1F1F1" height="2" style="stroke:#181818;stroke-width:0.5;" width="4" x="777.2505" y="258"/><text fill="#1A1A1A" font-family="Comic Sans MS" font-size="13" lengthAdjust="spacing" textLength="66.2505" x="708" y="281.3267">ApiService</text></g><!--entity Mock--><g class="entity" data-entity="Mock" data-source-line="17" data-uid="ent0016" id="entity_Mock"><rect fill="#F1F1F1" height="48.1162" rx="6" ry="6" style="stroke:#181818;stroke-width:0.5;" width="133.3867" x="817.5" y="247"/><rect fill="#F1F1F1" height="10" style="stroke:#181818;stroke-width:0.5;" width="15" x="930.8867" y="252"/><rect fill="#F1F1F1" height="2" style="stroke:#181818;stroke-width:0.5;" width="4" x="928.8867" y="254"/><rect fill="#F1F1F1" height="2" style="stroke:#181818;stroke-width:0.5;" width="4" x="928.8867" y="258"/><text fill="#1A1A1A" font-family="Comic Sans MS" font-size="13" lengthAdjust="spacing" textLength="93.3867" x="832.5" y="281.3267">MockReviewApi</text></g><!--entity Routes--><g class="entity" data-entity="Routes" data-source-line="21" data-uid="ent0018" id="entity_Routes"><rect fill="#F1F1F1" height="48.1162" rx="6" ry="6" style="stroke:#181818;stroke-width:0.5;" width="117.4414" x="1661.5" y="369"/><rect fill="#F1F1F1" height="10" style="stroke:#181818;stroke-width:0.5;" width="15" x="1758.9414" y="374"/><rect fill="#F1F1F1" height="2" style="stroke:#181818;stroke-width:0.5;" width="4" x="1756.9414" y="376"/><rect fill="#F1F1F1" height="2" style="stroke:#181818;stroke-width:0.5;" width="4" x="1756.9414" y="380"/><text fill="#1A1A1A" font-family="Comic Sans MS" font-size="13" lengthAdjust="spacing" textLength="77.4414" x="1676.5" y="403.3267">REST routes</text></g><!--entity Guard--><g class="entity" data-entity="Guard" data-source-line="22" data-uid="ent0019" id="entity_Guard"><rect fill="#F1F1F1" height="48.1162" rx="6" ry="6" style="stroke:#181818;stroke-width:0.5;" width="125.998" x="1545" y="472"/><rect fill="#F1F1F1" height="10" style="stroke:#181818;stroke-width:0.5;" width="15" x="1650.998" y="477"/><rect fill="#F1F1F1" height="2" style="stroke:#181818;stroke-width:0.5;" width="4" x="1648.998" y="479"/><rect fill="#F1F1F1" height="2" style="stroke:#181818;stroke-width:0.5;" width="4" x="1648.998" y="483"/><text fill="#1A1A1A" font-family="Comic Sans MS" font-size="13" lengthAdjust="spacing" textLength="85.998" x="1560" y="506.3267">Auth + bounds</text></g><!--entity ReviewCache--><g class="entity" data-entity="ReviewCache" data-source-line="23" data-uid="ent0020" id="entity_ReviewCache"><path d="M1543,379.5 C1543,369.5 1592.8982,369.5 1592.8982,369.5 C1592.8982,369.5 1642.7964,369.5 1642.7964,379.5 L1642.7964,406.6162 C1642.7964,416.6162 1592.8982,416.6162 1592.8982,416.6162 C1592.8982,416.6162 1543,416.6162 1543,406.6162 L1543,379.5" fill="#FFFFFF" style="stroke:#333333;stroke-width:0.5;"/><path d="M1543,379.5 C1543,389.5 1592.8982,389.5 1592.8982,389.5 C1592.8982,389.5 1642.7964,389.5 1642.7964,379.5" fill="none" style="stroke:#333333;stroke-width:0.5;"/><text fill="#1A1A1A" font-family="Comic Sans MS" font-size="13" lengthAdjust="spacing" textLength="79.7964" x="1553" y="407.8267">Review cache</text></g><!--entity DiagramCache--><g class="entity" data-entity="DiagramCache" data-source-line="24" data-uid="ent0021" id="entity_DiagramCache"><path d="M1417,379.5 C1417,369.5 1471.0496,369.5 1471.0496,369.5 C1471.0496,369.5 1525.0991,369.5 1525.0991,379.5 L1525.0991,406.6162 C1525.0991,416.6162 1471.0496,416.6162 1471.0496,416.6162 C1471.0496,416.6162 1417,416.6162 1417,406.6162 L1417,379.5" fill="#FFFFFF" style="stroke:#333333;stroke-width:0.5;"/><path d="M1417,379.5 C1417,389.5 1471.0496,389.5 1471.0496,389.5 C1471.0496,389.5 1525.0991,389.5 1525.0991,379.5" fill="none" style="stroke:#333333;stroke-width:0.5;"/><text fill="#1A1A1A" font-family="Comic Sans MS" font-size="13" lengthAdjust="spacing" textLength="88.0991" x="1427" y="407.8267">Diagram cache</text></g><!--entity Limit--><g class="entity" data-entity="Limit" data-source-line="25" data-uid="ent0022" id="entity_Limit"><rect fill="#F1F1F1" height="48.1162" rx="6" ry="6" style="stroke:#181818;stroke-width:0.5;" width="112.1094" x="1415" y="472"/><rect fill="#F1F1F1" height="10" style="stroke:#181818;stroke-width:0.5;" width="15" x="1507.1094" y="477"/><rect fill="#F1F1F1" height="2" style="stroke:#181818;stroke-width:0.5;" width="4" x="1505.1094" y="479"/><rect fill="#F1F1F1" height="2" style="stroke:#181818;stroke-width:0.5;" width="4" x="1505.1094" y="483"/><text fill="#1A1A1A" font-family="Comic Sans MS" font-size="13" lengthAdjust="spacing" textLength="72.1094" x="1430" y="506.3267">RateLimiter</text></g><!--entity Verify--><g class="entity" data-entity="Verify" data-source-line="26" data-uid="ent0023" id="entity_Verify"><rect fill="#F1F1F1" height="48.1162" rx="6" ry="6" style="stroke:#181818;stroke-width:0.5;" width="127.3184" x="1689.5" y="472"/><rect fill="#F1F1F1" height="10" style="stroke:#181818;stroke-width:0.5;" width="15" x="1796.8184" y="477"/><rect fill="#F1F1F1" height="2" style="stroke:#181818;stroke-width:0.5;" width="4" x="1794.8184" y="479"/><rect fill="#F1F1F1" height="2" style="stroke:#181818;stroke-width:0.5;" width="4" x="1794.8184" y="483"/><text fill="#1A1A1A" font-family="Comic Sans MS" font-size="13" lengthAdjust="spacing" textLength="87.3184" x="1704.5" y="506.3267">QuoteVerifier</text></g><!--entity Router--><g class="entity" data-entity="Router" data-source-line="27" data-uid="ent0024" id="entity_Router"><rect fill="#F1F1F1" height="48.1162" rx="6" ry="6" style="stroke:#181818;stroke-width:0.5;" width="132.0791" x="1415" y="575"/><rect fill="#F1F1F1" height="10" style="stroke:#181818;stroke-width:0.5;" width="15" x="1527.0791" y="580"/><rect fill="#F1F1F1" height="2" style="stroke:#181818;stroke-width:0.5;" width="4" x="1525.0791" y="582"/><rect fill="#F1F1F1" height="2" style="stroke:#181818;stroke-width:0.5;" width="4" x="1525.0791" y="586"/><text fill="#1A1A1A" font-family="Comic Sans MS" font-size="13" lengthAdjust="spacing" textLength="92.0791" x="1430" y="609.3267">ProviderRouter</text></g><!--entity Share--><g class="entity" data-entity="Share" data-source-line="28" data-uid="ent0025" id="entity_Share"><path d="M1835,482.5 C1835,472.5 1880.9436,472.5 1880.9436,472.5 C1880.9436,472.5 1926.8872,472.5 1926.8872,482.5 L1926.8872,509.6162 C1926.8872,519.6162 1880.9436,519.6162 1880.9436,519.6162 C1880.9436,519.6162 1835,519.6162 1835,509.6162 L1835,482.5" fill="#FFFFFF" style="stroke:#333333;stroke-width:0.5;"/><path d="M1835,482.5 C1835,492.5 1880.9436,492.5 1880.9436,492.5 C1880.9436,492.5 1926.8872,492.5 1926.8872,482.5" fill="none" style="stroke:#333333;stroke-width:0.5;"/><text fill="#1A1A1A" font-family="Comic Sans MS" font-size="13" lengthAdjust="spacing" textLength="71.8872" x="1845" y="510.8267">ShareStore</text></g><!--entity UploadStore--><g class="entity" data-entity="UploadStore" data-source-line="29" data-uid="ent0026" id="entity_UploadStore"><path d="M1945.5,482.5 C1945.5,472.5 1993.7795,472.5 1993.7795,472.5 C1993.7795,472.5 2042.0591,472.5 2042.0591,482.5 L2042.0591,509.6162 C2042.0591,519.6162 1993.7795,519.6162 1993.7795,519.6162 C1993.7795,519.6162 1945.5,519.6162 1945.5,509.6162 L1945.5,482.5" fill="#FFFFFF" style="stroke:#333333;stroke-width:0.5;"/><path d="M1945.5,482.5 C1945.5,492.5 1993.7795,492.5 1993.7795,492.5 C1993.7795,492.5 2042.0591,492.5 2042.0591,482.5" fill="none" style="stroke:#333333;stroke-width:0.5;"/><text fill="#1A1A1A" font-family="Comic Sans MS" font-size="13" lengthAdjust="spacing" textLength="76.5591" x="1955.5" y="510.8267">UploadStore</text></g><g class="link" data-entity-1="UI" data-entity-2="VM" data-uid="lnk31" id="link_UI_VM"><polygon fill="#444444" points="613,143.9364,617,134.9364,613,138.9364,609,134.9364,613,143.9364" style="stroke:#444444;stroke-width:1;"/><path d="M613,89.1714 C613,105.595 613,121.537 613,137.9364" fill="none" style="stroke:#444444;stroke-width:1;stroke-dasharray:7.0,7.0;"/><text fill="#1A1A1A" font-family="Comic Sans MS" font-size="11" lengthAdjust="spacing" textLength="90.9648" x="615" y="121.1226">commands + state</text></g><g class="link" data-entity-1="VM" data-entity-2="Doc" data-uid="lnk32" id="link_VM_Doc"><polygon fill="#444444" points="187.7135,249.1511,197.3895,250.9882,192.5812,248.0083,195.5611,243.2,187.7135,249.1511" style="stroke:#444444;stroke-width:1;"/><path d="M526.7582,183.2259 C481.7613,190.8237 425.8449,200.5395 376,210 C296.1875,225.1482 276.2004,228.9225 197,247 C193.9503,247.6961 196.6877,247.0442 193.5547,247.7798" fill="none" style="stroke:#444444;stroke-width:1;stroke-dasharray:7.0,7.0;"/><text fill="#1A1A1A" font-family="Comic Sans MS" font-size="11" lengthAdjust="spacing" textLength="33.7627" x="378" y="224.1226">import</text></g><g class="link" data-entity-1="VM" data-entity-2="Repo" data-uid="lnk33" id="link_VM_Repo"><polygon fill="#444444" points="352.0139,247.921,361.7864,249.1447,356.7999,246.4737,359.4708,241.4871,352.0139,247.921" style="stroke:#444444;stroke-width:1;"/><path d="M536.7923,192.0448 C481.3429,208.8125 412.4501,229.6453 357.757,246.1842" fill="none" style="stroke:#444444;stroke-width:1;stroke-dasharray:7.0,7.0;"/><text fill="#1A1A1A" font-family="Comic Sans MS" font-size="11" lengthAdjust="spacing" textLength="33.2954" x="478" y="224.1226">review</text></g><g class="link" data-entity-1="VM" data-entity-2="Vision" data-uid="lnk34" id="link_VM_Vision"><polygon fill="#444444" points="488.7648,246.9364,498.5144,245.5421,493.0003,244.2793,494.2631,238.7652,488.7648,246.9364" style="stroke:#444444;stroke-width:1;"/><path d="M576.0633,192.1714 C549.8832,208.595 519.989,227.3485 493.8474,243.7479" fill="none" style="stroke:#444444;stroke-width:1;stroke-dasharray:7.0,7.0;"/><text fill="#1A1A1A" font-family="Comic Sans MS" font-size="11" lengthAdjust="spacing" textLength="26.0767" x="549" y="224.1226">audit</text></g><g class="link" data-entity-1="VM" data-entity-2="Ask" data-uid="lnk35" id="link_VM_Ask"><polygon fill="#444444" points="613,246.9364,617,237.9364,613,241.9364,609,237.9364,613,246.9364" style="stroke:#444444;stroke-width:1;"/><path d="M613,192.1714 C613,208.595 613,224.537 613,240.9364" fill="none" style="stroke:#444444;stroke-width:1;stroke-dasharray:7.0,7.0;"/><text fill="#1A1A1A" font-family="Comic Sans MS" font-size="11" lengthAdjust="spacing" textLength="16.1015" x="615" y="224.1226">h&#7887;i</text></g><g class="link" data-entity-1="VM" data-entity-2="Export" data-uid="lnk36" id="link_VM_Export"><polygon fill="#444444" points="968.1641,249.4384,960.5283,243.218,963.3392,248.1271,958.4301,250.938,968.1641,249.4384" style="stroke:#444444;stroke-width:1;"/><path d="M699.0439,186.7711 C769.2786,201.6668 870.9446,224.118 959,247 C962.0061,247.7812 959.2817,247.0243 962.3742,247.8648" fill="none" style="stroke:#444444;stroke-width:1;stroke-dasharray:7.0,7.0;"/><text fill="#1A1A1A" font-family="Comic Sans MS" font-size="11" lengthAdjust="spacing" textLength="23.4856" x="886" y="224.1226">xu&#7845;t</text></g><g class="link" data-entity-1="VM" data-entity-2="Store" data-uid="lnk37" id="link_VM_Store"><polygon fill="#444444" points="1123.4399,249.5527,1115.8721,243.2496,1118.6295,248.1889,1113.6901,250.9463,1123.4399,249.5527" style="stroke:#444444;stroke-width:1;"/><path d="M699.1144,177.3111 C799.7431,188.1909 970.7357,210.3202 1114,247 C1117.0981,247.7932 1114.4861,247.0143 1117.6674,247.9162" fill="none" style="stroke:#444444;stroke-width:1;stroke-dasharray:7.0,7.0;"/><text fill="#1A1A1A" font-family="Comic Sans MS" font-size="11" lengthAdjust="spacing" textLength="14.3104" x="1036" y="224.1226">l&#432;u</text></g><g class="link" data-entity-1="Repo" data-entity-2="Selector" data-uid="lnk38" id="link_Repo_Selector"><polygon fill="#444444" points="225.4102,368.7488,228.2352,359.3138,224.7754,363.7893,220.2999,360.3295,225.4102,368.7488" style="stroke:#444444;stroke-width:1;"/><path d="M243.9989,295.4062 C238.7469,300.5527 234.0696,306.4504 231,313 C222.8507,330.388 222.5539,346.4331 224.6485,362.7974" fill="none" style="stroke:#444444;stroke-width:1;stroke-dasharray:7.0,7.0;"/><text fill="#1A1A1A" font-family="Comic Sans MS" font-size="11" lengthAdjust="spacing" textLength="85.1134" x="233" y="327.1226">l&#7853;p k&#7871; ho&#7841;ch &#7843;nh</text></g><g class="link" data-entity-1="Repo" data-entity-2="Renderer" data-uid="lnk39" id="link_Repo_Renderer"><polygon fill="#444444" points="393.9984,368.9308,388.7387,360.604,389.8415,366.1523,384.2931,367.2551,393.9984,368.9308" style="stroke:#444444;stroke-width:1;"/><path d="M301.9487,295.0974 C313.8191,306.6295 328.771,320.5299 343,332 C359.1416,345.0118 372.996,354.8928 389.0101,365.5966" fill="none" style="stroke:#444444;stroke-width:1;stroke-dasharray:7.0,7.0;"/><text fill="#1A1A1A" font-family="Comic Sans MS" font-size="11" lengthAdjust="spacing" textLength="34.8423" x="345" y="327.1226">render</text></g><g class="link" data-entity-1="Vision" data-entity-2="Renderer" data-uid="lnk40" id="link_Vision_Renderer"><polygon fill="#444444" points="434.2288,368.9338,439.7862,360.8027,435.1304,364.0158,431.9173,359.3601,434.2288,368.9338" style="stroke:#444444;stroke-width:1;"/><path d="M447.7582,295.1372 C443.8625,316.3865 439.2023,341.8054 435.3108,363.0322" fill="none" style="stroke:#444444;stroke-width:1;stroke-dasharray:7.0,7.0;"/><text fill="#1A1A1A" font-family="Comic Sans MS" font-size="11" lengthAdjust="spacing" textLength="34.8423" x="447" y="327.1226">render</text></g><g class="link" data-entity-1="Vision" data-entity-2="IApi" data-uid="lnk41" id="link_Vision_IApi"><polygon fill="#444444" points="603.707,385.0735,598.8813,376.4879,599.698,382.0855,594.1004,382.9022,603.707,385.0735" style="stroke:#444444;stroke-width:1;"/><path d="M483.0424,295.1372 C520.324,322.9247 575.9017,364.3491 598.8962,381.4879" fill="none" style="stroke:#444444;stroke-width:1;stroke-dasharray:7.0,7.0;"/><text fill="#1A1A1A" font-family="Comic Sans MS" font-size="11" lengthAdjust="spacing" textLength="68.9648" x="535" y="327.1226">diagramAudit</text></g><g class="link" data-entity-1="Ask" data-entity-2="IApi" data-uid="lnk42" id="link_Ask_IApi"><polygon fill="#444444" points="613,380.8587,617,371.8587,613,375.8587,609,371.8587,613,380.8587" style="stroke:#444444;stroke-width:1;"/><path d="M613,295.1372 C613,320.8815 613,355.4087 613,374.8587" fill="none" style="stroke:#444444;stroke-width:1;stroke-dasharray:7.0,7.0;"/><text fill="#1A1A1A" font-family="Comic Sans MS" font-size="11" lengthAdjust="spacing" textLength="16.9243" x="615" y="327.1226">ask</text></g><g class="link" data-entity-1="Repo" data-entity-2="IApi" data-uid="lnk43" id="link_Repo_IApi"><polygon fill="#444444" points="603.8512,385.0582,598.9487,376.5162,599.8156,382.1062,594.2256,382.9731,603.8512,385.0582" style="stroke:#444444;stroke-width:1;"/><path d="M341.5686,295.0511 C354.7909,300.5021 368.5149,306.6048 381,313 C395.0469,320.1952 396.0133,327.0516 411,332 C457.1254,347.23 473.4751,326.0379 520,340 C553.3093,349.9961 583.0084,369.812 599.0085,381.5158" fill="none" style="stroke:#444444;stroke-width:1;stroke-dasharray:7.0,7.0;"/><text fill="#1A1A1A" font-family="Comic Sans MS" font-size="11" lengthAdjust="spacing" textLength="22.4565" x="413" y="327.1226">uses</text></g><g class="link" data-entity-1="Api" data-entity-2="IApi" data-uid="lnk44" id="link_Api_IApi"><polygon fill="none" points="622.1285,383.7637,639.5122,376.1605,631.4735,367.251,622.1285,383.7637" style="stroke:#444444;stroke-width:1;"/><path d="M720.3563,295.1372 C690.3133,322.2437 655.4706,353.6807 635.4928,371.7057" fill="none" style="stroke:#444444;stroke-width:1;stroke-dasharray:7.0,7.0;"/><text fill="#1A1A1A" font-family="Comic Sans MS" font-size="11" lengthAdjust="spacing" textLength="57.417" x="702" y="327.1226">implements</text></g><g class="link" data-entity-1="Mock" data-entity-2="IApi" data-uid="lnk45" id="link_Mock_IApi"><polygon fill="none" points="622.0271,388.7639,640.9948,388.288,636.9157,377.0026,622.0271,388.7639" style="stroke:#444444;stroke-width:1;"/><path d="M840.6582,295.0472 C818.2968,306.6318 790.4404,320.5938 765,332 C711.6717,355.9098 662.6735,374.0725 638.9553,382.6453" fill="none" style="stroke:#444444;stroke-width:1;stroke-dasharray:7.0,7.0;"/><text fill="#1A1A1A" font-family="Comic Sans MS" font-size="11" lengthAdjust="spacing" textLength="57.417" x="807" y="327.1226">implements</text></g><g class="link" data-entity-1="Api" data-entity-2="Routes" data-uid="lnk46" id="link_Api_Routes"><polygon fill="#444444" points="1697.3945,368.7664,1693.3443,359.7889,1693.6645,365.4367,1688.0167,365.7568,1697.3945,368.7664" style="stroke:#444444;stroke-width:1;"/><path d="M799.2552,292.3717 C802.1988,293.3048 805.1274,294.1886 808,295 C889.5324,318.0293 910.7333,323.2252 995,332 C1031.3064,335.7806 1617.4967,328.0849 1652,340 C1668.9977,345.8699 1680.6428,353.8122 1692.9185,364.7707" fill="none" style="stroke:#444444;stroke-width:1;"/><text fill="#1A1A1A" font-family="Comic Sans MS" font-size="11" lengthAdjust="spacing" textLength="36.7544" x="997" y="327.1226">HTTPS</text></g><g class="link" data-entity-1="Mock" data-entity-2="Routes" data-uid="lnk47" id="link_Mock_Routes"><polygon fill="#444444" points="1697.3827,368.8005,1693.3277,359.8251,1693.6509,365.4727,1688.0033,365.7959,1697.3827,368.8005" style="stroke:#444444;stroke-width:1;"/><path d="M950.5311,292.9032 C953.3843,293.6412 956.2161,294.3442 959,295 C1056.3626,317.936 1081.3868,322.9035 1181,332 C1207.062,334.3799 1627.2836,331.3981 1652,340 C1668.9836,345.9107 1680.6257,353.8577 1692.9046,364.8072" fill="none" style="stroke:#444444;stroke-width:1;stroke-dasharray:7.0,7.0;"/><text fill="#1A1A1A" font-family="Comic Sans MS" font-size="11" lengthAdjust="spacing" textLength="47.1745" x="1183" y="327.1226">kh&#244;ng g&#7885;i</text></g><g class="link" data-entity-1="Routes" data-entity-2="Guard" data-uid="lnk48" id="link_Routes_Guard"><polygon fill="#444444" points="1649.4182,471.8835,1659.136,470.2821,1653.5963,469.1369,1654.7415,463.5972,1649.4182,471.8835" style="stroke:#444444;stroke-width:1;"/><path d="M1704.6965,417.2145 C1696.2165,429.0465 1684.9807,443.1804 1673,454 C1665.8706,460.4384 1662.6236,463.2025 1654.4319,468.5876" fill="none" style="stroke:#444444;stroke-width:1;stroke-dasharray:7.0,7.0;"/><text fill="#1A1A1A" font-family="Comic Sans MS" font-size="11" lengthAdjust="spacing" textLength="70.3506" x="1693" y="449.1226">auth + bounds</text></g><g class="link" data-entity-1="ReviewCache" data-entity-2="Guard" data-uid="lnk49" id="link_ReviewCache_Guard"><polygon fill="#444444" points="1604.5409,471.7087,1607.1754,462.2187,1603.8064,466.7629,1599.2622,463.3939,1604.5409,471.7087" style="stroke:#444444;stroke-width:1;"/><path d="M1596.3663,416.6664 C1598.8021,433.0676 1601.2025,449.2303 1603.6595,465.7738" fill="none" style="stroke:#444444;stroke-width:1;stroke-dasharray:7.0,7.0;"/><text fill="#1A1A1A" font-family="Comic Sans MS" font-size="11" lengthAdjust="spacing" textLength="63.9909" x="1604" y="449.1226">lookup tr&#432;&#7899;c</text></g><g class="link" data-entity-1="DiagramCache" data-entity-2="Guard" data-uid="lnk50" id="link_DiagramCache_Guard"><polygon fill="#444444" points="1544.7877,474.7941,1537.4247,468.253,1540.0232,473.2777,1534.9985,475.8762,1544.7877,474.7941" style="stroke:#444444;stroke-width:1;"/><path d="M1468.5072,416.5674 C1468.3791,428.935 1470.415,443.7814 1479,454 C1496.0889,474.3408 1510.68,463.958 1536,472 C1538.8765,472.9136 1536.0999,472.0291 1539.0703,472.9744" fill="none" style="stroke:#444444;stroke-width:1;stroke-dasharray:7.0,7.0;"/><text fill="#1A1A1A" font-family="Comic Sans MS" font-size="11" lengthAdjust="spacing" textLength="63.9909" x="1481" y="449.1226">lookup tr&#432;&#7899;c</text></g><g class="link" data-entity-1="ReviewCache" data-entity-2="Limit" data-uid="lnk51" id="link_ReviewCache_Limit"><polygon fill="#444444" points="1524.2161,471.805,1534.0171,470.8344,1528.5628,469.3339,1530.0633,463.8797,1524.2161,471.805" style="stroke:#444444;stroke-width:1;"/><path d="M1580.4383,416.5239 C1572.8125,428.7273 1562.2051,443.4275 1550,454 C1542.2914,460.6775 1538.5227,463.6717 1529.4322,468.8397" fill="none" style="stroke:#444444;stroke-width:1;stroke-dasharray:7.0,7.0;"/><text fill="#1A1A1A" font-family="Comic Sans MS" font-size="11" lengthAdjust="spacing" textLength="22.3384" x="1569" y="449.1226">miss</text></g><g class="link" data-entity-1="DiagramCache" data-entity-2="Limit" data-uid="lnk52" id="link_DiagramCache_Limit"><polygon fill="#444444" points="1444.9737,471.8913,1442.2876,462.4158,1441.7739,468.0493,1436.1404,467.5355,1444.9737,471.8913" style="stroke:#444444;stroke-width:1;"/><path d="M1445.0946,416.5997 C1435.9026,427.4219 1428.949,440.8639 1434,454 C1436.4776,460.4434 1436.6485,461.8952 1441.1339,467.2809" fill="none" style="stroke:#444444;stroke-width:1;stroke-dasharray:7.0,7.0;"/><text fill="#1A1A1A" font-family="Comic Sans MS" font-size="11" lengthAdjust="spacing" textLength="22.3384" x="1436" y="449.1226">miss</text></g><g class="link" data-entity-1="Limit" data-entity-2="Router" data-uid="lnk53" id="link_Limit_Router"><polygon fill="#444444" points="1478.7165,574.9364,1481.8103,565.5861,1478.2238,569.9607,1473.8492,566.3743,1478.7165,574.9364" style="stroke:#444444;stroke-width:1;"/><path d="M1473.2942,520.1714 C1474.9203,536.595 1476.5016,552.5662 1478.1253,568.9656" fill="none" style="stroke:#444444;stroke-width:1;stroke-dasharray:7.0,7.0;"/><text fill="#1A1A1A" font-family="Comic Sans MS" font-size="11" lengthAdjust="spacing" textLength="42.0073" x="1479" y="552.1226">50/ng&#224;y</text></g><g class="link" data-entity-1="Router" data-entity-2="Gemini" data-uid="lnk54" id="link_Router_Gemini"><polygon fill="#444444" points="1481,677.9364,1485,668.9364,1481,672.9364,1477,668.9364,1481,677.9364" style="stroke:#444444;stroke-width:1;"/><path d="M1481,623.1714 C1481,639.595 1481,655.537 1481,671.9364" fill="none" style="stroke:#444444;stroke-width:1;stroke-dasharray:7.0,7.0;"/><text fill="#1A1A1A" font-family="Comic Sans MS" font-size="11" lengthAdjust="spacing" textLength="92.2861" x="1483" y="655.1226">primary + fallback</text></g><g class="link" data-entity-1="Routes" data-entity-2="Verify" data-uid="lnk55" id="link_Routes_Verify"><polygon fill="#444444" points="1777.6,471.894,1786.3255,467.3262,1780.7061,467.9758,1780.0565,462.3564,1777.6,471.894" style="stroke:#444444;stroke-width:1;"/><path d="M1770.228,417.1135 C1776.5419,422.117 1782.1324,428.0443 1786,435 C1792.7594,447.1564 1790.1746,456.032 1781.3273,467.1922" fill="none" style="stroke:#444444;stroke-width:1;stroke-dasharray:7.0,7.0;"/><text fill="#1A1A1A" font-family="Comic Sans MS" font-size="11" lengthAdjust="spacing" textLength="55.8486" x="1791" y="449.1226">review/ask</text></g><g class="link" data-entity-1="Routes" data-entity-2="Share" data-uid="lnk56" id="link_Routes_Share"><polygon fill="#444444" points="1874.9167,472.2471,1875.6913,462.4287,1873.2516,467.5325,1868.1479,465.0928,1874.9167,472.2471" style="stroke:#444444;stroke-width:1;"/><path d="M1778.6455,401.6011 C1803.5733,407.3343 1831.5423,417.3852 1852,435 C1863.2223,444.6628 1868.4742,454.0052 1872.9186,466.5895" fill="none" style="stroke:#444444;stroke-width:1;stroke-dasharray:7.0,7.0;"/><text fill="#1A1A1A" font-family="Comic Sans MS" font-size="11" lengthAdjust="spacing" textLength="34.2783" x="1869" y="449.1226">/share</text></g><g class="link" data-entity-1="Routes" data-entity-2="UploadStore" data-uid="lnk57" id="link_Routes_UploadStore"><polygon fill="#444444" points="1967.7477,472.2745,1963.1974,463.5398,1963.8357,469.1606,1958.215,469.7989,1967.7477,472.2745" style="stroke:#444444;stroke-width:1;"/><path d="M1778.5204,400.5316 C1816.8421,406.2789 1867.351,416.6926 1909,435 C1930.3315,444.3766 1947.0539,455.8018 1963.0534,468.5378" fill="none" style="stroke:#444444;stroke-width:1;stroke-dasharray:7.0,7.0;"/><text fill="#1A1A1A" font-family="Comic Sans MS" font-size="11" lengthAdjust="spacing" textLength="59.3828" x="1944" y="449.1226">groundwork</text></g><g class="link" data-entity-1="Upload" data-entity-2="Routes" data-uid="lnk58" id="link_Upload_Routes"><polygon fill="#444444" points="1692.9021,368.984,1688.3643,360.2428,1688.9946,365.8644,1683.373,366.4948,1692.9021,368.984" style="stroke:#444444;stroke-width:1;"/><path d="M1106.7363,89.0785 C1220.2719,131.392 1463.3138,227.4553 1652,340 C1666.1677,348.4506 1676.1446,355.6056 1688.2131,365.2405" fill="none" style="stroke:#444444;stroke-width:1;stroke-dasharray:7.0,7.0;"/><text fill="#1A1A1A" font-family="Comic Sans MS" font-size="11" lengthAdjust="spacing" textLength="70.3936" x="1442" y="224.1226">presign + PUT</text></g><g class="link" data-entity-1="Share" data-entity-2="Shares" data-uid="lnk59" id="link_Share_Shares"><polygon fill="#444444" points="2061.9708,575.4466,2055.3041,568.1971,2057.3833,573.458,2052.1224,575.5372,2061.9708,575.4466" style="stroke:#444444;stroke-width:1;"/><path d="M1927.0333,516.9543 C1965.892,533.7987 2016,555.5193 2056.4658,573.0603" fill="none" style="stroke:#444444;stroke-width:1;"/><text fill="#1A1A1A" font-family="Comic Sans MS" font-size="11" lengthAdjust="spacing" textLength="31.6948" x="2020" y="552.1226">HTML</text></g><g class="link" data-entity-1="UploadStore" data-entity-2="Uploads" data-uid="lnk60" id="link_UploadStore_Uploads"><polygon fill="#444444" points="2187.9085,575.339,2181.0621,568.259,2183.2725,573.4661,2178.0654,575.6765,2187.9085,575.339" style="stroke:#444444;stroke-width:1;"/><path d="M2042.796,516.7136 C2084.4309,533.5341 2138.7421,555.4758 2182.3453,573.0915" fill="none" style="stroke:#444444;stroke-width:1;"/><text fill="#1A1A1A" font-family="Comic Sans MS" font-size="11" lengthAdjust="spacing" textLength="50.542" x="2143" y="552.1226">raw bytes</text></g><g class="link" data-entity-1="Store" data-entity-2="Prefs" data-uid="lnk61" id="link_Store_Prefs"><polygon fill="#444444" points="1302.4313,369.3408,1298.0183,360.5359,1298.5686,366.166,1292.9386,366.7163,1302.4313,369.3408" style="stroke:#444444;stroke-width:1;"/><path d="M1212.1503,295.1372 C1238.1693,316.5227 1271.964,344.2992 1297.796,365.531" fill="none" style="stroke:#444444;stroke-width:1;"/><text fill="#1A1A1A" font-family="Comic Sans MS" font-size="11" lengthAdjust="spacing" textLength="93.9297" x="1259" y="327.1226">snapshot + history</text></g><g class="link" data-entity-1="Upload" data-entity-2="VM" data-uid="lnk62" id="link_Upload_VM"><polygon fill="#444444" points="699.1945,146.7543,708.8707,148.5904,704.0621,145.611,707.0415,140.8023,699.1945,146.7543" style="stroke:#444444;stroke-width:1;"/><path d="M979.089,81.0117 C904.8084,98.459 787.7164,125.962 705.0356,145.3823" fill="none" style="stroke:#444444;stroke-width:1;stroke-dasharray:7.0,7.0;"/><text fill="#1A1A1A" font-family="Comic Sans MS" font-size="11" lengthAdjust="spacing" textLength="69.8368" x="869" y="121.1226">ch&#432;a c&#243; caller</text></g><g class="link" data-entity-1="App" data-entity-2="GMN63" data-uid="lnk65" id="link_App_GMN63"><path d="M1253.2802,70.3261 C1253.5154,70.3891 1253.7527,70.4527 1253.9921,70.5168 C1254.4711,70.6451 1254.9586,70.7758 1255.4546,70.9088 C1259.4221,71.973 1263.928,73.1865 1268.8705,74.5253 C1278.7554,77.203 1290.3864,80.3821 1302.9496,83.8715 C1328.0758,90.8502 1356.9303,99.0698 1383,107 C1422.3449,118.9684 1466.1274,133.2869 1501.0004,144.9343" fill="none" style="stroke:#444444;stroke-width:1;stroke-dasharray:7.0,7.0;"/></g><!--SRC=[XLLDZjis5Dxp5CniYx6A5bqq0G8OcJGr40EkDNQN0ItH4c6AL4dACqQJ0sGHz03T92Yo3310il8ikXXWxg6Rz3rIiYcdqsuCydkVto-_fqUrOKN5g6GxtJXgA-wOOkIHK9biSawJfPPDnMsIfXV91TycB7DYovFPVFhzZz-z-aaspd4prIiXUP8BLXXMsNDMSEKIwtQIZqHJIK8Cpy1n8Jazw_v3MLsVKMRfkAxfxuJIJ5UrLl17UlQhDXjRiupJnSHp5fC724l1hwOwvzBJbjCXxK9daBnoSrvhAvmsEqy3UCYRyotuEM7XTKXR2Ykq2kIKcwt8U0ZhyI5tR3Tzz52btPp6hBLnpw_nbnlF2PSXBUKMdQUGLWZcJqFE3FezgU0dvHBwh8Et_l80TyvLpaqNkRyCkOjQQfR7bGO4M491qckSKDUySIqyOmA7aqxK8dRnbNsgiytG1oBapV3HCEl6imcjZRuEuvdXwVJXp9-dbzJ0I-OsrEMF9_aqhgJVq9LkL1vOBnfciAYSERPYzb0JpLXMygv123p3-u1u4PvynEoGdXednnn_AIhHZzkVXvHV6ktuaXkn5Xt9NtOdCpHwAs1UlZfpBDGCKajBPdZqRl0w87JZFJ2YEtO_2lY2Lq892WC8_V9NSX8gdnc-XaUaigxvUBSHoy8hu2OPMMJROrB_ncbyBZRAonAocD3Hw2ced3x6TbGC1WYJj0uQIm158uWEhABoIkemb1g0ni-m1uDe0MPDBWvKa2b0PNlxX-YXe4f0hvjs__70z7q2LDxVDCH7y6WdEZIq-qyrtRJxlscfs_s7hAJj_YzL7iczwdnkU2HTKlzhH9M1eLkuOry1fXxP62oSGwGEQomq6u-ZqUi32BsI7FUK9IYyXsm8d9y_xIG5jfylBsTf_vS8tvHtNrH1Y_RsdI0TYWIlCj_lI7ya4jQ09RNUD3LrvlwclVqp8x6i_fDuwj2h37YLiFPhBmDhk1oAmTR_y6sYYhltEz8XFd9GmsDOHg9YPWV5h9cKAmPRAwetAFVmxX8_aAFPFtsm9buEiINI8TWBWuswWWyU2OPXjslGZoWKv31RN9BW5CSKbEN7D7r9OfTexII5oR4hkjhXaZnQlN31PXMhRQaTE2-5nGzZd4AGONb_msXsznase9JmI8c23GR3TKvNLA_nwmvBPx3ZgRnxJpCfSBNezLeAnPy09qZVK_i51-xRsxVuk_-memgar40tVskuTTJ1j4Nu7em828HYu7y0]--></g></svg>